<svg width="40" height="40" viewBox="0 0 40 40" fill="none" xmlns="http://www.w3.org/2000/svg">
<path fill-rule="evenodd" clip-rule="evenodd" d="M27.7794 15.3872C28.256 15.8867 28.2373 16.6779 27.7378 17.1544L18.566 25.9044C18.0827 26.3655 17.3224 26.3652 16.8395 25.9037L12.2614 21.5287C11.7623 21.0517 11.7443 20.2605 12.2213 19.7614C12.6983 19.2623 13.4895 19.2443 13.9886 19.7213L17.7039 23.2717L26.0122 15.3456C26.5117 14.869 27.3029 14.8877 27.7794 15.3872Z" fill="#2C2C2C"/>
<path fill-rule="evenodd" clip-rule="evenodd" d="M5 7.5C5 6.11929 6.11929 5 7.5 5H32.5C33.8807 5 35 6.11929 35 7.5V32.5C35 33.8807 33.8807 35 32.5 35H7.5C6.11929 35 5 33.8807 5 32.5V7.5ZM32.5 7.5H7.5V32.5H32.5V7.5Z" fill="#2C2C2C"/>
</svg>
