<svg width="40" height="40" viewBox="0 0 40 40" fill="none" xmlns="http://www.w3.org/2000/svg">
<path fill-rule="evenodd" clip-rule="evenodd" d="M6.98223 4.48223C7.45107 4.01339 8.08696 3.75 8.75 3.75H23.75C24.0815 3.75 24.3995 3.8817 24.6339 4.11612L33.3839 12.8661C33.6183 13.1005 33.75 13.4185 33.75 13.75V33.75C33.75 34.413 33.4866 35.0489 33.0178 35.5178C32.5489 35.9866 31.913 36.25 31.25 36.25H8.75C8.08696 36.25 7.45108 35.9866 6.98223 35.5178C6.51339 35.0489 6.25 34.413 6.25 33.75V6.25C6.25 5.58696 6.51339 4.95107 6.98223 4.48223ZM23.2322 6.25L8.75 6.25L8.75 33.75H31.25V14.2678L23.2322 6.25Z" fill="#2C2C2C"/>
<path fill-rule="evenodd" clip-rule="evenodd" d="M23.75 3.75C24.4404 3.75 25 4.30964 25 5V12.5H32.5C33.1904 12.5 33.75 13.0596 33.75 13.75C33.75 14.4404 33.1904 15 32.5 15H23.75C23.0596 15 22.5 14.4404 22.5 13.75V5C22.5 4.30964 23.0596 3.75 23.75 3.75Z" fill="#2C2C2C"/>
<path fill-rule="evenodd" clip-rule="evenodd" d="M13.75 21.25C13.75 20.5596 14.3096 20 15 20H25C25.6904 20 26.25 20.5596 26.25 21.25C26.25 21.9404 25.6904 22.5 25 22.5H15C14.3096 22.5 13.75 21.9404 13.75 21.25Z" fill="#2C2C2C"/>
<path fill-rule="evenodd" clip-rule="evenodd" d="M13.75 26.25C13.75 25.5596 14.3096 25 15 25H25C25.6904 25 26.25 25.5596 26.25 26.25C26.25 26.9404 25.6904 27.5 25 27.5H15C14.3096 27.5 13.75 26.9404 13.75 26.25Z" fill="#2C2C2C"/>
</svg>
