<svg width="40" height="40" viewBox="0 0 40 40" fill="none" xmlns="http://www.w3.org/2000/svg">
<path fill-rule="evenodd" clip-rule="evenodd" d="M5 17.5C5 16.8096 5.55964 16.25 6.25 16.25H33.75C34.4404 16.25 35 16.8096 35 17.5V31.25C35 31.913 34.7366 32.5489 34.2678 33.0178C33.7989 33.4866 33.163 33.75 32.5 33.75H7.5C6.83696 33.75 6.20108 33.4866 5.73223 33.0178C5.26339 32.5489 5 31.913 5 31.25V17.5ZM7.5 18.75V31.25H32.5V18.75H7.5Z" fill="#2C2C2C"/>
<path fill-rule="evenodd" clip-rule="evenodd" d="M29.6537 3.46643C29.9685 3.37853 30.2977 3.35363 30.6223 3.39319C30.9504 3.43318 31.2673 3.53826 31.5543 3.70227C31.8413 3.86628 32.0927 4.08593 32.2938 4.34833C32.4939 4.60951 32.6401 4.90783 32.724 5.22596C32.7244 5.22745 32.7248 5.22894 32.7252 5.23044L34.0199 10.0507C34.106 10.371 34.0612 10.7123 33.8955 10.9995C33.7299 11.2867 33.4569 11.4964 33.1366 11.5823L6.57408 18.7073C5.90746 18.8861 5.22207 18.4908 5.04303 17.8242L3.74559 12.994C3.66075 12.676 3.63956 12.3443 3.68323 12.018C3.72691 11.6917 3.83459 11.3773 4.00009 11.0928C4.16559 10.8082 4.38565 10.5592 4.64765 10.3599C4.90864 10.1614 5.20612 10.0162 5.52314 9.93248C5.52437 9.93216 5.5256 9.93183 5.52684 9.93151L29.6537 3.46643ZM30.3107 5.87858C30.3098 5.87881 30.309 5.87903 30.3081 5.87926L6.16752 12.348L6.16113 12.3497L7.13329 15.9689L31.2811 9.49162L30.3107 5.87858Z" fill="#2C2C2C"/>
<path fill-rule="evenodd" clip-rule="evenodd" d="M19.2459 6.62486C19.5912 6.02705 20.3557 5.82232 20.9535 6.16759L28.6097 10.5895C29.2076 10.9347 29.4123 11.6992 29.067 12.2971C28.7218 12.8949 27.9572 13.0996 27.3594 12.7543L19.7032 8.33246C19.1054 7.9872 18.9006 7.22268 19.2459 6.62486Z" fill="#2C2C2C"/>
<path fill-rule="evenodd" clip-rule="evenodd" d="M8.38707 9.54578C8.73287 8.94827 9.49757 8.74422 10.0951 9.09002L17.7357 13.5119C18.3332 13.8577 18.5373 14.6224 18.1915 15.2199C17.8457 15.8174 17.081 16.0215 16.4835 15.6757L8.84284 11.2538C8.24533 10.908 8.04128 10.1433 8.38707 9.54578Z" fill="#2C2C2C"/>
</svg>
