<svg width="40" height="40" viewBox="0 0 40 40" fill="none" xmlns="http://www.w3.org/2000/svg">
<path fill-rule="evenodd" clip-rule="evenodd" d="M12.5 36.25C12.5 35.5596 13.0596 35 13.75 35H26.25C26.9404 35 27.5 35.5596 27.5 36.25C27.5 36.9404 26.9404 37.5 26.25 37.5H13.75C13.0596 37.5 12.5 36.9404 12.5 36.25Z" fill="#2C2C2C"/>
<path fill-rule="evenodd" clip-rule="evenodd" d="M20 21.25C20.6904 21.25 21.25 21.8096 21.25 22.5V31.25C21.25 31.9404 20.6904 32.5 20 32.5C19.3096 32.5 18.75 31.9404 18.75 31.25V22.5C18.75 21.8096 19.3096 21.25 20 21.25Z" fill="#2C2C2C"/>
<path fill-rule="evenodd" clip-rule="evenodd" d="M14.1161 16.6161C14.6043 16.128 15.3957 16.128 15.8839 16.6161L20 20.7322L24.1161 16.6161C24.6043 16.128 25.3957 16.128 25.8839 16.6161C26.372 17.1043 26.372 17.8957 25.8839 18.3839L20.8839 23.3839C20.3957 23.872 19.6043 23.872 19.1161 23.3839L14.1161 18.3839C13.628 17.8957 13.628 17.1043 14.1161 16.6161Z" fill="#2C2C2C"/>
<path fill-rule="evenodd" clip-rule="evenodd" d="M26.363 6.96917C24.4146 5.63272 22.0949 4.94363 19.7329 4.99962L19.7321 4.99964C13.6363 5.1401 8.72199 10.2181 8.75012 16.3223L8.75013 16.324C8.75568 18.0194 9.14701 19.6912 9.89447 21.2129C10.6419 22.7346 11.7259 24.0663 13.0643 25.1069L12.297 26.0937L13.0705 25.1118C13.6674 25.582 14.1507 26.1805 14.4847 26.8629C14.8188 27.5453 14.9949 28.2942 15.0001 29.0539L15.0001 29.0625V30H25.0001L25.0001 29.0601C25.0016 28.293 25.1785 27.5364 25.5172 26.8482C25.8551 26.1615 26.3453 25.561 26.9503 25.0923C28.8069 23.6335 30.1574 21.6274 30.8106 19.3582C31.4641 17.0877 31.3862 14.6691 30.5879 12.4453C29.7896 10.2216 28.3114 8.30561 26.363 6.96917ZM11.5262 27.0778C9.88992 25.8046 8.56462 24.176 7.65056 22.3151C6.73596 20.4532 6.25706 18.4075 6.25014 16.333C6.21622 8.8754 12.2075 2.6728 19.6736 2.50032M11.5262 27.0778C11.827 27.3154 12.0707 27.6176 12.2393 27.962C12.4078 28.3062 12.4969 28.6839 12.5001 29.0671V30C12.5001 30.663 12.7635 31.2989 13.2324 31.7677C13.7012 32.2366 14.3371 32.5 15.0001 32.5H25.0001C25.6632 32.5 26.2991 32.2366 26.7679 31.7677C27.2367 31.2989 27.5001 30.663 27.5001 30L27.5001 29.0649C27.5001 29.0646 27.5001 29.0644 27.5001 29.0641C27.501 28.6785 27.59 28.2981 27.7603 27.9521C27.9307 27.6058 28.178 27.3031 28.4833 27.0671L28.4908 27.0613C30.7621 25.2779 32.4143 22.8248 33.213 20.0497C34.0118 17.2746 33.9166 14.3185 32.9408 11.6006C31.9651 8.88271 30.1585 6.54098 27.7771 4.90755C25.396 3.27427 22.5611 2.43205 19.6745 2.5003" fill="#2C2C2C"/>
</svg>
