<svg width="22" height="22" viewBox="0 0 22 22" fill="none" xmlns="http://www.w3.org/2000/svg">
<path d="M0.440231 21.5556C-0.770989 20.306 0.539459 18.5889 4.09585 16.7655L6.33358 15.6182L7.20535 13.6503C7.68483 12.568 8.40044 10.802 8.79561 9.72587L9.51409 7.76929L9.01898 6.32131C8.41019 4.54089 8.19309 1.86537 8.57935 0.903304C9.10255 -0.399833 10.8163 -0.266128 11.4948 1.13076C12.0246 2.22173 11.9705 4.19744 11.3424 6.6891L10.8274 8.73183L11.281 9.52622C11.5305 9.96314 12.2592 11.0006 12.9003 11.8316L14.1053 13.3781L15.6048 13.1762C20.3684 12.5349 22 13.6248 22 15.1876C22 17.16 18.2596 17.3228 15.1185 15.0467C14.4118 14.5346 13.9265 14.0259 13.9265 14.0259C13.9265 14.0259 11.9587 14.4392 10.9899 14.7086C9.98987 14.9867 9.49094 15.1608 8.02606 15.671C8.02606 15.671 7.51208 16.441 7.17716 17.0008C5.93111 19.0836 4.47621 20.8096 3.43719 21.4378C2.27385 22.1412 1.05428 22.1892 0.440231 21.5556ZM2.34105 20.8551C3.0219 20.4209 4.39995 18.7394 5.35387 17.1788L5.74009 16.5469L3.98152 17.4591C1.26542 18.868 0.0228654 20.1959 0.668989 20.9991C1.03196 21.4503 1.46617 21.4129 2.34105 20.8551ZM19.9836 15.746C20.6496 15.2647 20.5529 14.295 19.8 13.904C19.2141 13.5997 18.7419 13.5372 17.2198 13.5604C16.2844 13.6262 14.7804 13.8206 14.5255 13.8798C14.5255 13.8798 15.3517 14.469 15.7186 14.6855C16.2069 14.9733 17.3936 15.5074 18.26 15.781C19.1147 16.0509 19.609 16.0225 19.9836 15.7459V15.746ZM12.8898 12.7041C12.4868 12.267 11.8014 11.3548 11.3669 10.6769C10.7985 9.90787 10.5135 9.36534 10.5135 9.36534C10.5135 9.36534 10.0981 10.7438 9.75732 11.5734L8.69405 14.2848L8.38577 14.8998C8.38577 14.8998 10.0247 14.3454 10.8585 14.1207C11.7417 13.8827 13.5341 13.5191 13.5341 13.5191L12.8898 12.7041ZM10.6037 3.24579C10.7065 2.35578 10.7501 1.46709 10.473 1.01895C9.70416 0.151871 8.77625 0.874943 8.93342 2.93637C8.98631 3.62985 9.1533 4.81533 9.37654 5.546L9.78245 6.87448L10.0681 5.87391C10.2253 5.3236 10.4663 4.14094 10.6037 3.24579Z" fill="white"/>
</svg>
