<svg width="16" height="16" viewBox="0 0 16 16" fill="none" xmlns="http://www.w3.org/2000/svg">
<path fill-rule="evenodd" clip-rule="evenodd" d="M7.66536 4.3335C7.2662 4.3335 6.90864 4.47077 6.66624 4.67854C6.42861 4.88222 6.33203 5.1224 6.33203 5.3335C6.33203 5.88578 5.88432 6.3335 5.33203 6.3335C4.77975 6.3335 4.33203 5.88578 4.33203 5.3335C4.33203 4.48373 4.72712 3.70649 5.36466 3.16003C5.99743 2.61765 6.82685 2.3335 7.66536 2.3335H8.33203C9.17055 2.3335 9.99996 2.61765 10.6327 3.16003C11.2631 3.70034 11.6564 4.46626 11.6652 5.30482C11.6955 5.94458 11.5203 6.57753 11.1647 7.11085C10.8162 7.63363 10.3127 8.03332 9.7257 8.25432C9.56389 8.34007 9.37591 8.51698 9.22582 8.81717C9.06679 9.13522 8.9799 9.53706 8.99779 9.95766C9.02127 10.5094 8.59298 10.9758 8.0412 10.9993C7.48941 11.0227 7.02307 10.5944 6.9996 10.0427C6.96839 9.30903 7.11503 8.56662 7.43696 7.92275C7.75818 7.28031 8.2579 6.73265 8.90752 6.42807C8.93779 6.41388 8.96876 6.40121 9.0003 6.39012C9.20479 6.31821 9.38038 6.18181 9.50062 6.00145C9.62086 5.82109 9.67924 5.60654 9.66697 5.39012C9.6659 5.37127 9.66536 5.35238 9.66536 5.3335C9.66536 5.1224 9.56879 4.88222 9.33116 4.67854C9.08876 4.47077 8.73119 4.3335 8.33203 4.3335H7.66536Z" fill="white"/>
<path fill-rule="evenodd" clip-rule="evenodd" d="M8 11.6665C8.55228 11.6665 9 12.1142 9 12.6665V12.674C9 13.2263 8.55228 13.674 8 13.674C7.44772 13.674 7 13.2263 7 12.674V12.6665C7 12.1142 7.44772 11.6665 8 11.6665Z" fill="white"/>
</svg>
