<svg width="24" height="24" viewBox="0 0 24 24" fill="none" xmlns="http://www.w3.org/2000/svg">
<path fill-rule="evenodd" clip-rule="evenodd" d="M10.875 4.125C7.14708 4.125 4.125 7.14708 4.125 10.875C4.125 14.6029 7.14708 17.625 10.875 17.625C14.6029 17.625 17.625 14.6029 17.625 10.875C17.625 7.14708 14.6029 4.125 10.875 4.125ZM1.875 10.875C1.875 5.90444 5.90444 1.875 10.875 1.875C15.8456 1.875 19.875 5.90444 19.875 10.875C19.875 15.8456 15.8456 19.875 10.875 19.875C5.90444 19.875 1.875 15.8456 1.875 10.875Z" fill="#2C2C2C"/>
<path fill-rule="evenodd" clip-rule="evenodd" d="M15.6482 15.6484C16.0876 15.209 16.7999 15.209 17.2392 15.6484L21.7955 20.2046C22.2348 20.6439 22.2348 21.3563 21.7955 21.7956C21.3561 22.2349 20.6438 22.2349 20.2045 21.7956L15.6482 17.2393C15.2089 16.8 15.2089 16.0877 15.6482 15.6484Z" fill="#2C2C2C"/>
</svg>
