<svg width="40" height="40" viewBox="0 0 40 40" fill="none" xmlns="http://www.w3.org/2000/svg">
<path fill-rule="evenodd" clip-rule="evenodd" d="M13.2322 5.73223C13.7011 5.26339 14.337 5 15 5H32.5C33.163 5 33.7989 5.26339 34.2678 5.73223C34.7366 6.20108 35 6.83696 35 7.5V23.75C35 24.413 34.7366 25.0489 34.2678 25.5178C33.7989 25.9866 33.163 26.25 32.5 26.25H12.5C11.8096 26.25 11.25 25.6904 11.25 25C11.25 24.3096 11.8096 23.75 12.5 23.75H32.5L32.5 7.5H15V8.75C15 9.44036 14.4404 10 13.75 10C13.0596 10 12.5 9.44036 12.5 8.75V7.5C12.5 6.83696 12.7634 6.20107 13.2322 5.73223Z" fill="#2C2C2C"/>
<path fill-rule="evenodd" clip-rule="evenodd" d="M17.1339 20.3661C17.622 20.8543 17.622 21.6457 17.1339 22.1339L14.2678 25L17.1339 27.8661C17.622 28.3543 17.622 29.1457 17.1339 29.6339C16.6457 30.122 15.8543 30.122 15.3661 29.6339L11.6161 25.8839C11.128 25.3957 11.128 24.6043 11.6161 24.1161L15.3661 20.3661C15.8543 19.878 16.6457 19.878 17.1339 20.3661Z" fill="#2C2C2C"/>
<path fill-rule="evenodd" clip-rule="evenodd" d="M5.73223 14.4822C6.20107 14.0134 6.83696 13.75 7.5 13.75H27.5C28.1904 13.75 28.75 14.3096 28.75 15C28.75 15.6904 28.1904 16.25 27.5 16.25L7.5 16.25L7.5 32.5H25V31.25C25 30.5596 25.5596 30 26.25 30C26.9404 30 27.5 30.5596 27.5 31.25V32.5C27.5 33.163 27.2366 33.7989 26.7678 34.2678C26.2989 34.7366 25.663 35 25 35H7.5C6.83696 35 6.20108 34.7366 5.73223 34.2678C5.26339 33.7989 5 33.163 5 32.5V16.25C5 15.587 5.26339 14.9511 5.73223 14.4822Z" fill="#2C2C2C"/>
<path fill-rule="evenodd" clip-rule="evenodd" d="M22.8661 10.3661C23.3543 9.87796 24.1457 9.87796 24.6339 10.3661L28.3839 14.1161C28.872 14.6043 28.872 15.3957 28.3839 15.8839L24.6339 19.6339C24.1457 20.122 23.3543 20.122 22.8661 19.6339C22.378 19.1457 22.378 18.3543 22.8661 17.8661L25.7322 15L22.8661 12.1339C22.378 11.6457 22.378 10.8543 22.8661 10.3661Z" fill="#2C2C2C"/>
</svg>
