<svg width="23" height="14" viewBox="0 0 23 14" fill="none" xmlns="http://www.w3.org/2000/svg">
<path fill-rule="evenodd" clip-rule="evenodd" d="M21.9703 0.9375C22.1372 0.40875 21.9703 0.0243748 21.232 0.0243748H18.7772C18.158 0.0243748 17.872 0.360937 17.7052 0.720937C17.7052 0.720937 16.4423 3.79594 14.6789 5.78953C14.107 6.36609 13.845 6.55828 13.5352 6.55828C13.3683 6.55828 13.1536 6.36609 13.1536 5.83781V0.912656C13.1536 0.288281 12.9633 0 12.4388 0H8.57813C8.19656 0 7.95844 0.288281 7.95844 0.576563C7.95844 1.17703 8.84016 1.32141 8.93531 3.00281V6.65625C8.93531 7.44891 8.79469 7.59375 8.4825 7.59375C7.64859 7.59375 5.62313 4.49484 4.40813 0.96375C4.17188 0.264375 3.93188 0 3.31219 0H0.833906C0.119063 0 0 0.336094 0 0.696563C0 1.34531 0.833906 4.61203 3.88406 8.93578C5.90953 11.8889 8.79281 13.4761 11.3902 13.4761C12.9633 13.4761 13.1536 13.1156 13.1536 12.5152V10.2811C13.1536 9.56062 13.2966 9.44062 13.7972 9.44062C14.1544 9.44062 14.798 9.63234 16.2516 11.0498C17.9194 12.7313 18.2053 13.5 19.1348 13.5H21.5892C22.3041 13.5 22.6378 13.1395 22.447 12.443C22.2328 11.7464 21.4223 10.7377 20.3738 9.53672C19.8019 8.86453 18.9441 8.11969 18.682 7.75922C18.3248 7.27875 18.42 7.08656 18.682 6.65438C18.6581 6.65438 21.6609 2.37844 21.9703 0.935625" fill="#2C2C2C"/>
</svg>
