<svg width="263" height="263" viewBox="0 0 263 263" fill="none" xmlns="http://www.w3.org/2000/svg">
<path d="M10.659 0H0V10.659C3.47577 6.95154 6.95156 3.47577 10.659 0Z" fill="#F4F4F4"/>
<path d="M262.768 10.659V0H252.109C255.817 3.47577 259.292 6.95154 262.768 10.659Z" fill="#F4F4F4"/>
<path d="M0 252.109V262.768H10.659C6.95156 259.293 3.47577 255.817 0 252.109Z" fill="#F4F4F4"/>
<path d="M252.109 262.768H262.768V252.109C259.292 255.817 255.817 259.293 252.109 262.768Z" fill="#F4F4F4"/>
<path d="M0 227.547V240.06C6.71982 248.17 14.3665 255.816 22.4766 262.536H34.9894C21.7815 252.804 9.96388 240.987 0 227.547Z" fill="#F4F4F4"/>
<path d="M240.292 0H227.779C241.218 9.96388 253.036 21.7815 262.768 34.9894V22.4767C256.048 14.3665 248.402 6.71982 240.292 0Z" fill="#F4F4F4"/>
<path d="M227.547 262.769H240.06C248.17 256.049 255.817 248.402 262.536 240.292V227.779C252.804 240.987 240.987 252.805 227.547 262.769Z" fill="#F4F4F4"/>
<path d="M34.9894 0H22.4766C14.3665 6.71982 6.71982 14.3665 0 22.4767V34.9894C9.96388 21.7815 21.7815 9.96388 34.9894 0Z" fill="#F4F4F4"/>
<path d="M0 198.119V213.875C12.5128 233.803 29.1965 250.487 49.1242 263H64.8811C36.8432 248.633 14.1348 225.925 0 198.119Z" fill="#F4F4F4"/>
<path d="M198.119 262.768H213.876C233.804 250.255 250.487 233.571 263 213.644V197.887C248.634 225.925 225.925 248.633 198.119 262.768Z" fill="#F4F4F4"/>
<path d="M262.768 64.6493V48.8925C250.256 29.1965 233.572 12.5128 213.644 0H197.887C225.925 14.1348 248.634 36.8432 262.768 64.6493Z" fill="#F4F4F4"/>
<path d="M0 49.1244V64.8813C14.1348 37.0751 36.8432 14.3667 64.6493 0.231934H48.8925C29.1965 12.513 12.5128 29.1967 0 49.1244Z" fill="#F4F4F4"/>
<path d="M141.348 262.768H178.423C217.583 248.633 248.865 217.583 262.768 178.191V141.116C257.902 205.997 205.997 257.902 141.348 262.768Z" fill="#F4F4F4"/>
<path d="M262.768 121.42V84.3454C248.633 45.185 217.583 14.1348 178.191 0H141.116C205.997 4.86608 257.902 56.7709 262.768 121.42Z" fill="#F4F4F4"/>
<path d="M121.42 0H84.3454C45.185 14.1348 13.9031 45.185 0 84.5771V121.652C4.86608 56.7709 56.7709 4.86608 121.42 0Z" fill="#F4F4F4"/>
<path d="M84.3454 262.768H121.42C56.5392 257.902 4.86608 205.997 0 141.348V178.423C14.1348 217.583 45.185 248.633 84.3454 262.768Z" fill="#F4F4F4"/>
<path d="M255.353 131.384C255.353 63.0269 199.741 7.41455 131.384 7.41455C63.0274 7.41455 7.41504 63.0269 7.41504 131.384C7.41504 199.741 63.0274 255.353 131.384 255.353C199.741 255.353 255.353 199.741 255.353 131.384ZM15.2935 131.384C15.2935 67.4295 67.43 15.293 131.384 15.293C195.338 15.293 247.475 67.4295 247.475 131.384C247.475 195.338 195.338 247.474 131.384 247.474C67.1983 247.474 15.2935 195.338 15.2935 131.384Z" fill="#F4F4F4"/>
<path d="M239.597 131.384C239.597 71.601 190.936 23.1719 131.384 23.1719C71.6009 23.1719 23.1719 71.8327 23.1719 131.384C23.1719 191.167 71.8327 239.828 131.384 239.828C191.167 239.597 239.597 191.167 239.597 131.384ZM30.8186 131.384C30.8186 76.0036 76.0036 30.8186 131.384 30.8186C186.765 30.8186 231.95 76.0036 231.95 131.384C231.95 186.765 186.765 231.95 131.384 231.95C76.0036 231.95 30.8186 186.765 30.8186 131.384Z" fill="#F4F4F4"/>
<path d="M224.071 131.384C224.071 80.1743 182.362 38.6968 131.384 38.6968C80.1744 38.6968 38.6969 80.406 38.6969 131.384C38.6969 182.594 80.4061 224.071 131.384 224.071C182.594 224.071 224.071 182.594 224.071 131.384ZM46.3436 131.384C46.3436 84.5769 84.5771 46.3435 131.384 46.3435C178.191 46.3435 216.425 84.5769 216.425 131.384C216.425 178.191 178.191 216.424 131.384 216.424C84.5771 216.424 46.3436 178.191 46.3436 131.384Z" fill="#F4F4F4"/>
<path d="M208.546 131.384C208.546 88.7477 174.02 54.2217 131.384 54.2217C88.7479 54.2217 54.2219 88.7477 54.2219 131.384C54.2219 174.02 88.7479 208.546 131.384 208.546C174.02 208.546 208.546 174.02 208.546 131.384ZM61.8686 131.384C61.8686 93.1503 92.9188 61.8684 131.384 61.8684C169.618 61.8684 200.899 92.9186 200.899 131.384C200.899 169.617 169.849 200.899 131.384 200.899C93.1505 200.899 61.8686 169.617 61.8686 131.384Z" fill="#F4F4F4"/>
<path d="M193.021 131.385C193.021 97.5537 165.447 69.7476 131.384 69.7476C97.5534 69.7476 69.7472 97.322 69.7472 131.385C69.7472 165.215 97.3216 193.022 131.384 193.022C165.215 193.022 193.021 165.215 193.021 131.385ZM77.6256 131.385C77.6256 101.725 101.724 77.626 131.384 77.626C161.044 77.626 185.143 101.725 185.143 131.385C185.143 161.044 161.044 185.143 131.384 185.143C101.724 185.143 77.6256 161.044 77.6256 131.385Z" fill="#F4F4F4"/>
<path d="M177.264 131.384C177.264 106.126 156.641 85.5034 131.384 85.5034C106.127 85.5034 85.504 106.126 85.504 131.384C85.504 156.641 106.127 177.264 131.384 177.264C156.641 177.264 177.264 156.641 177.264 131.384ZM93.1507 131.384C93.1507 110.297 110.298 93.1501 131.384 93.1501C152.471 93.1501 169.618 110.297 169.618 131.384C169.618 152.47 152.471 169.617 131.384 169.617C110.298 169.617 93.1507 152.47 93.1507 131.384Z" fill="#F4F4F4"/>
<path d="M161.739 131.385C161.739 114.701 148.068 101.03 131.384 101.03C114.7 101.03 101.029 114.701 101.029 131.385C101.029 148.069 114.7 161.74 131.384 161.74C148.068 161.74 161.739 148.069 161.739 131.385ZM108.676 131.385C108.676 118.872 118.871 108.676 131.384 108.676C143.897 108.676 154.092 118.872 154.092 131.385C154.092 143.898 143.897 154.093 131.384 154.093C118.871 154.093 108.676 143.898 108.676 131.385Z" fill="#F4F4F4"/>
<path d="M146.214 131.384C146.214 123.274 139.494 116.554 131.384 116.554C123.274 116.554 116.554 123.274 116.554 131.384C116.554 139.494 123.274 146.214 131.384 146.214C139.494 146.214 146.214 139.494 146.214 131.384ZM124.201 131.384C124.201 127.445 127.445 124.201 131.384 124.201C135.324 124.201 138.568 127.445 138.568 131.384C138.568 135.323 135.324 138.567 131.384 138.567C127.445 138.336 124.201 135.323 124.201 131.384Z" fill="#F4F4F4"/>
</svg>
