<svg width="168" height="56" viewBox="0 0 168 56" fill="none" xmlns="http://www.w3.org/2000/svg">
<g clip-path="url(#clip0_253_1187)">
<path d="M55.8772 24.7434V11.9893H59.6842C60.9614 11.9893 62.0421 12.1866 62.9509 12.5567C63.8351 12.9267 64.5719 13.4448 65.1123 14.0862C65.6526 14.7276 66.0702 15.443 66.3158 16.2078C66.5614 16.9972 66.6842 17.7866 66.6842 18.576C66.6842 19.5135 66.5123 20.3769 66.1684 21.1417C65.8246 21.9064 65.3579 22.5478 64.793 23.0906C64.2281 23.6333 63.5404 24.028 62.7544 24.3241C61.9684 24.6201 61.1579 24.7434 60.2982 24.7434H55.8772ZM58.3825 22.3012H59.8561C60.4947 22.3012 61.0597 22.2271 61.5754 22.0545C62.0912 21.8818 62.5333 21.6351 62.9018 21.3144C63.2702 20.9937 63.5649 20.5743 63.7614 20.1056C63.9579 19.6368 64.0561 19.0448 64.0561 18.428C64.0561 17.5893 63.9333 16.9232 63.6632 16.4051C63.393 15.8871 63.0491 15.4677 62.6561 15.1716C62.2632 14.8756 61.8456 14.6782 61.4526 14.5796C61.0597 14.4809 60.6912 14.4069 60.3965 14.4069H58.3579L58.3825 22.3012Z" fill="white"/>
<path d="M66.7334 24.7434L72.4562 11.4712H72.6036L78.3264 24.7188H75.4281L71.7685 15.3937L73.586 14.1355L69.2141 24.6941C69.1895 24.7434 66.7334 24.7434 66.7334 24.7434ZM70.6387 20.1302H74.4457L75.3299 22.2518H69.8527L70.6387 20.1302Z" fill="white"/>
<path d="M83.6071 11.9893C84.3931 11.9893 85.1054 12.0879 85.7194 12.2853C86.3334 12.4827 86.8492 12.7787 87.2913 13.1487C87.7089 13.5188 88.0282 13.9628 88.2492 14.5056C88.4703 15.0236 88.5685 15.6157 88.5685 16.2818C88.5685 16.7998 88.4948 17.3179 88.3229 17.836C88.151 18.354 87.9054 18.8227 87.5615 19.2668C87.2176 19.7108 86.751 20.0315 86.1861 20.3029C85.6211 20.5743 84.9089 20.6976 84.0492 20.6976H82.2562V24.7434H79.751V11.9893H83.6071ZM84.0247 18.2553C84.3931 18.2553 84.7124 18.1813 84.9826 18.058C85.2282 17.9346 85.4247 17.7619 85.572 17.5646C85.7194 17.3672 85.8176 17.1699 85.8913 16.9478C85.965 16.7258 85.9896 16.5285 85.9896 16.3558C85.9896 16.2078 85.965 16.0351 85.9404 15.8377C85.8913 15.6157 85.8176 15.4183 85.6948 15.1963C85.572 14.9743 85.3755 14.8016 85.1054 14.6536C84.8597 14.5056 84.4913 14.4315 84.0738 14.4315H82.2808V18.2553H84.0247ZM86.3826 19.8095L89.5264 24.7188H86.6036L83.3861 19.8589L86.3826 19.8095Z" fill="white"/>
<path d="M93.7017 16.5285L93.628 17.1699L93.9964 16.6765L98.1473 11.9893H101.389L96.1333 17.7126L101.389 24.7434H98.2456L94.3157 19.2915L93.7017 19.9082V24.7188H91.1719V11.9893H93.7017V16.5285Z" fill="white"/>
<path d="M119.589 11.9893V24.7434H117.084V19.5628H111.411V24.7434H108.905V11.9893H111.411V17.1452H117.084V11.9893H119.589Z" fill="white"/>
<path d="M121.751 18.3788C121.751 17.4906 121.923 16.6766 122.242 15.8871C122.586 15.0977 123.028 14.4069 123.618 13.7902C124.207 13.1735 124.895 12.7047 125.681 12.3594C126.467 12.014 127.302 11.8413 128.186 11.8413C129.07 11.8413 129.905 12.014 130.691 12.3594C131.477 12.7047 132.165 13.1735 132.779 13.7902C133.393 14.4069 133.86 15.0977 134.204 15.8871C134.547 16.6766 134.719 17.5153 134.719 18.3788C134.719 19.2915 134.547 20.1303 134.204 20.8951C133.86 21.6598 133.393 22.3752 132.779 22.9673C132.165 23.5594 131.477 24.0281 130.691 24.3735C129.905 24.7188 129.07 24.8669 128.186 24.8669C127.277 24.8669 126.442 24.6942 125.681 24.3735C124.919 24.0528 124.207 23.584 123.618 22.9673C123.028 22.3506 122.562 21.6845 122.242 20.8951C121.923 20.1303 121.751 19.2669 121.751 18.3788ZM124.33 18.3788C124.33 18.9462 124.428 19.4642 124.625 19.9576C124.821 20.451 125.116 20.8951 125.46 21.2651C125.828 21.6351 126.246 21.9312 126.712 22.1532C127.179 22.3506 127.719 22.4739 128.284 22.4739C128.825 22.4739 129.316 22.3752 129.783 22.1532C130.249 21.9558 130.642 21.6598 131.011 21.2651C131.354 20.8951 131.625 20.451 131.821 19.9576C132.018 19.4642 132.116 18.9462 132.116 18.3788C132.116 17.8114 132.018 17.2686 131.821 16.7752C131.625 16.2818 131.354 15.8378 130.986 15.4677C130.618 15.0977 130.225 14.8017 129.758 14.6043C129.291 14.4069 128.776 14.2836 128.235 14.2836C127.695 14.2836 127.179 14.3823 126.712 14.6043C126.246 14.8263 125.828 15.0977 125.46 15.4677C125.091 15.8378 124.821 16.2818 124.625 16.7752C124.428 17.2686 124.33 17.8114 124.33 18.3788Z" fill="white"/>
<path d="M140.688 11.9893C141.474 11.9893 142.186 12.0879 142.8 12.2853C143.414 12.4827 143.954 12.7787 144.372 13.1487C144.79 13.5188 145.109 13.9628 145.33 14.5056C145.551 15.0483 145.649 15.6157 145.649 16.2818C145.649 16.7998 145.576 17.3179 145.404 17.836C145.232 18.354 144.986 18.8227 144.642 19.2668C144.298 19.6862 143.832 20.0315 143.242 20.3029C142.677 20.5743 141.965 20.6976 141.105 20.6976H139.312V24.7434H136.807V11.9893H140.688ZM141.105 18.2553C141.474 18.2553 141.793 18.1813 142.063 18.058C142.309 17.9346 142.505 17.7619 142.653 17.5646C142.8 17.3672 142.898 17.1699 142.972 16.9478C143.046 16.7258 143.07 16.5285 143.07 16.3558C143.07 16.2078 143.046 16.0351 143.021 15.8377C142.972 15.6157 142.898 15.4183 142.776 15.1963C142.653 14.9743 142.456 14.8016 142.211 14.6536C141.965 14.5056 141.597 14.4315 141.179 14.4315H139.386V18.2553H141.105ZM143.463 19.8095L146.607 24.7188H143.684L140.467 19.8589L143.463 19.8095Z" fill="white"/>
<path d="M155.204 15.073C154.712 14.8016 154.221 14.5796 153.73 14.4069C153.239 14.2342 152.747 14.1602 152.33 14.1602C151.79 14.1602 151.372 14.2835 151.053 14.4809C150.733 14.7029 150.586 15.0236 150.586 15.4677C150.586 15.7637 150.709 16.0351 150.93 16.2818C151.151 16.5285 151.47 16.7258 151.839 16.9232C152.207 17.1205 152.6 17.2686 152.993 17.4166C153.361 17.5646 153.73 17.7126 154.098 17.91C154.467 18.1073 154.786 18.3293 155.081 18.6254C155.375 18.9214 155.597 19.2668 155.768 19.6862C155.94 20.1056 156.014 20.6236 156.014 21.2404C156.014 21.8818 155.842 22.4985 155.523 23.0412C155.179 23.584 154.712 24.0527 154.049 24.3734C153.411 24.7188 152.625 24.8915 151.667 24.8915C151.175 24.8915 150.684 24.8421 150.193 24.7434C149.702 24.6448 149.211 24.4967 148.719 24.2994C148.228 24.102 147.761 23.8307 147.319 23.5346L148.425 21.5857C148.719 21.8078 149.039 22.0051 149.407 22.1531C149.775 22.3012 150.119 22.4492 150.463 22.5478C150.832 22.6465 151.151 22.6959 151.446 22.6959C151.74 22.6959 152.06 22.6465 152.354 22.5725C152.649 22.4985 152.919 22.3505 153.116 22.1285C153.312 21.9311 153.411 21.6351 153.411 21.265C153.411 21.0183 153.337 20.7716 153.165 20.5743C152.993 20.3769 152.772 20.1796 152.502 20.0069C152.207 19.8342 151.912 19.6862 151.568 19.5628C151.175 19.4148 150.782 19.2421 150.365 19.0448C149.947 18.8474 149.554 18.6007 149.211 18.3293C148.842 18.0333 148.547 17.6879 148.326 17.2686C148.105 16.8492 147.982 16.3311 147.982 15.7144C147.982 14.9743 148.154 14.3329 148.474 13.7901C148.793 13.2474 149.26 12.828 149.874 12.5073C150.463 12.1866 151.151 12.0139 151.937 11.9893C152.968 11.9893 153.779 12.1126 154.442 12.3593C155.081 12.606 155.646 12.902 156.161 13.2227L155.204 15.073Z" fill="white"/>
<path d="M158.225 11.9893H166.87V14.4069H160.705V17.1205H166.158V19.5382H160.705V22.3012H167.091V24.7188H158.2L158.225 11.9893Z" fill="white"/>
<path d="M55.8772 30.8613H58.8983C59.9544 30.8613 60.7895 31.0834 61.4035 31.5521C62.0175 32.0208 62.3123 32.7115 62.3123 33.649C62.3123 34.5864 62.0175 35.2772 61.4035 35.7459C60.7895 36.2146 59.9544 36.4367 58.8983 36.4367H56.9333V41.2719H55.8772V30.8613ZM56.9333 35.4745H58.6281C59.0947 35.4745 59.4877 35.4252 59.8316 35.3265C60.1509 35.2278 60.4211 35.1045 60.6175 34.9318C60.814 34.7591 60.9614 34.5864 61.0351 34.3644C61.1333 34.1424 61.1579 33.8957 61.1579 33.649C61.1579 33.4023 61.1088 33.1803 61.0351 32.9582C60.9368 32.7362 60.814 32.5389 60.6175 32.3662C60.4211 32.1935 60.1509 32.0701 59.8316 31.9715C59.5123 31.8728 59.1193 31.8234 58.6281 31.8234H56.9333V35.4745Z" fill="white"/>
<path d="M67.2983 41.2719H66.2422V30.8613H69.4352C70.4913 30.8613 71.3264 31.0834 71.9404 31.5521C72.5545 32.0208 72.8492 32.7115 72.8492 33.649C72.8492 34.3644 72.6281 34.9812 72.1615 35.4745C71.6948 35.9679 71.0562 36.264 70.1966 36.338L73.1931 41.2719H71.9159L69.0667 36.4367H67.2983V41.2719ZM67.2983 35.4745H69.165C69.6317 35.4745 70.0246 35.4252 70.3685 35.3265C70.6878 35.2278 70.958 35.1045 71.1545 34.9318C71.351 34.7591 71.4983 34.5864 71.572 34.3644C71.6703 34.1424 71.6948 33.8957 71.6948 33.649C71.6948 33.4023 71.6457 33.1803 71.572 32.9582C71.4738 32.7362 71.351 32.5389 71.1545 32.3662C70.958 32.1935 70.6878 32.0701 70.3685 31.9715C70.0492 31.8728 69.6317 31.8234 69.165 31.8234H67.2983V35.4745Z" fill="white"/>
<path d="M86.9965 36.067C86.9965 36.8564 86.8491 37.5965 86.5789 38.2626C86.3087 38.9287 85.9403 39.4961 85.4491 39.9895C84.9579 40.4828 84.393 40.8529 83.7298 41.1243C83.0666 41.3956 82.3544 41.5436 81.593 41.5436C80.8316 41.5436 80.0947 41.3956 79.4561 41.1243C78.793 40.8529 78.228 40.4828 77.7368 39.9895C77.2456 39.4961 76.8772 38.9287 76.607 38.2626C76.3368 37.5965 76.1895 36.8564 76.1895 36.067C76.1895 35.2776 76.3368 34.5375 76.607 33.8714C76.8772 33.2053 77.2456 32.6379 77.7368 32.1445C78.228 31.6511 78.793 31.2811 79.4561 31.0097C80.1193 30.7383 80.8316 30.5903 81.593 30.5903C82.3544 30.5903 83.0666 30.7383 83.7298 31.0097C84.393 31.2811 84.9579 31.6758 85.4491 32.1445C85.9403 32.6132 86.3087 33.2053 86.5789 33.8714C86.8737 34.5375 86.9965 35.2776 86.9965 36.067ZM85.8666 36.067C85.8666 35.4749 85.7684 34.9075 85.5719 34.3648C85.3754 33.8221 85.1052 33.3533 84.7368 32.9339C84.3684 32.5146 83.9263 32.1939 83.3859 31.9472C82.8702 31.7005 82.2561 31.5771 81.593 31.5771C80.9298 31.5771 80.3403 31.7005 79.8 31.9472C79.2842 32.1939 78.8175 32.5146 78.4491 32.9339C78.0807 33.3533 77.8105 33.8221 77.614 34.3648C77.4175 34.9075 77.3193 35.4749 77.3193 36.067C77.3193 36.6591 77.4175 37.2265 77.614 37.7692C77.8105 38.3119 78.0807 38.7806 78.4491 39.2C78.8175 39.6194 79.2596 39.9401 79.8 40.1868C80.3158 40.4335 80.9298 40.5569 81.593 40.5569C82.2561 40.5569 82.8456 40.4335 83.3859 40.1868C83.9017 39.9401 84.3684 39.6194 84.7368 39.2C85.1052 38.7806 85.3754 38.3119 85.5719 37.7692C85.7684 37.2511 85.8666 36.6591 85.8666 36.067Z" fill="white"/>
<path d="M90.9263 30.8613H94.3649C95.0035 30.8613 95.6666 30.96 96.3052 31.182C96.9438 31.4041 97.5333 31.7248 98.0736 32.1688C98.5894 32.6129 99.0315 33.1556 99.3508 33.797C99.6701 34.4384 99.8421 35.2032 99.8421 36.0666C99.8421 36.93 99.6701 37.6948 99.3508 38.3362C99.0315 38.9776 98.614 39.5204 98.0736 39.9644C97.5578 40.4085 96.9684 40.7292 96.3052 40.9512C95.6666 41.1732 95.0035 41.2719 94.3649 41.2719H90.9263V30.8613ZM91.9824 40.3098H94.0456C94.8315 40.3098 95.5192 40.1864 96.1087 39.9397C96.6982 39.693 97.1649 39.3723 97.5578 38.9776C97.9508 38.5829 98.221 38.1389 98.4175 37.6208C98.614 37.1027 98.6877 36.5847 98.6877 36.0419C98.6877 35.4992 98.5894 34.9812 98.4175 34.4631C98.2456 33.945 97.9508 33.501 97.5578 33.1063C97.1649 32.7115 96.6982 32.3908 96.1087 32.1441C95.5192 31.8975 94.8315 31.7741 94.0456 31.7741H91.9824V40.3098Z" fill="white"/>
<path d="M111.312 37.3988C111.312 37.8428 111.263 38.2869 111.165 38.7803C111.067 39.2737 110.87 39.7177 110.576 40.1124C110.281 40.5318 109.912 40.8772 109.421 41.1239C108.93 41.3952 108.291 41.5186 107.53 41.5186C106.744 41.5186 106.105 41.3706 105.614 41.1239C105.123 40.8772 104.73 40.5071 104.46 40.1124C104.19 39.7177 103.993 39.249 103.87 38.7803C103.772 38.2869 103.723 37.8428 103.723 37.3988V30.8613H104.779V37.2754C104.779 37.7688 104.828 38.2129 104.926 38.5582C105.025 38.9036 105.147 39.2243 105.319 39.471C105.491 39.7177 105.663 39.9151 105.86 40.0631C106.056 40.2111 106.253 40.3098 106.449 40.3838C106.646 40.4578 106.842 40.5071 107.039 40.5318C107.235 40.5565 107.383 40.5565 107.53 40.5565C107.653 40.5565 107.825 40.5318 107.997 40.5318C108.193 40.5071 108.39 40.4578 108.586 40.3838C108.783 40.3098 108.979 40.1864 109.2 40.0631C109.397 39.9151 109.569 39.7177 109.74 39.471C109.912 39.2243 110.035 38.9283 110.133 38.5582C110.232 38.2129 110.281 37.7688 110.281 37.2754V30.8613H111.337L111.312 37.3988Z" fill="white"/>
<path d="M124.428 39.6192C124.256 39.8905 124.035 40.1372 123.789 40.3593C123.544 40.5813 123.224 40.8033 122.905 40.976C122.561 41.1487 122.217 41.272 121.824 41.3707C121.431 41.4694 121.038 41.5187 120.596 41.5187C119.835 41.5187 119.098 41.3707 118.46 41.0994C117.796 40.828 117.231 40.4579 116.74 39.9645C116.249 39.4712 115.881 38.9038 115.61 38.2377C115.34 37.5716 115.193 36.8315 115.193 36.0421C115.193 35.2527 115.34 34.5126 115.61 33.8465C115.881 33.1804 116.249 32.613 116.74 32.1196C117.231 31.6262 117.796 31.2562 118.46 30.9848C119.123 30.7134 119.835 30.5654 120.596 30.5654C121.235 30.5654 121.874 30.6888 122.537 30.9601C123.175 31.2068 123.74 31.6262 124.182 32.2183L123.249 32.909C123.151 32.7364 123.003 32.5637 122.807 32.4156C122.61 32.243 122.414 32.0949 122.168 31.9716C121.923 31.8483 121.677 31.7496 121.407 31.6756C121.137 31.6016 120.867 31.5522 120.596 31.5522C119.933 31.5522 119.344 31.6756 118.803 31.9223C118.288 32.169 117.821 32.4897 117.453 32.909C117.084 33.3284 116.814 33.7971 116.617 34.3399C116.421 34.8826 116.323 35.45 116.323 36.0421C116.323 36.6342 116.421 37.2016 116.617 37.7443C116.814 38.287 117.084 38.7557 117.453 39.1751C117.821 39.5945 118.263 39.9152 118.803 40.1619C119.319 40.4086 119.933 40.5319 120.596 40.5319C120.867 40.5319 121.137 40.5073 121.407 40.4579C121.677 40.4086 121.947 40.3346 122.193 40.2112C122.438 40.0879 122.684 39.9399 122.93 39.7425C123.151 39.5452 123.372 39.2985 123.568 38.9778L124.428 39.6192Z" fill="white"/>
<path d="M131.502 41.2719H130.446V31.8234H126.982V30.8613H134.989V31.8234H131.526L131.502 41.2719Z" fill="white"/>
<path d="M139.607 41.2719H138.551V30.8613H139.607V41.2719Z" fill="white"/>
<path d="M154.467 36.067C154.467 36.8564 154.319 37.5965 154.049 38.2626C153.779 38.9287 153.386 39.4961 152.919 39.9895C152.428 40.4828 151.863 40.8529 151.2 41.1243C150.537 41.3956 149.825 41.5436 149.063 41.5436C148.302 41.5436 147.589 41.3956 146.926 41.1243C146.263 40.8529 145.698 40.4828 145.207 39.9895C144.716 39.4961 144.347 38.9287 144.077 38.2626C143.807 37.5965 143.66 36.8564 143.66 36.067C143.66 35.2776 143.782 34.5375 144.077 33.8714C144.347 33.2053 144.74 32.6379 145.207 32.1445C145.698 31.6511 146.263 31.2811 146.926 31.0097C147.589 30.7383 148.302 30.5903 149.063 30.5903C149.825 30.5903 150.537 30.7383 151.2 31.0097C151.863 31.2811 152.428 31.6758 152.919 32.1445C153.411 32.6132 153.779 33.2053 154.049 33.8714C154.344 34.5375 154.467 35.2776 154.467 36.067ZM153.337 36.067C153.337 35.4749 153.239 34.9075 153.042 34.3648C152.846 33.8221 152.575 33.3533 152.207 32.9339C151.839 32.5146 151.397 32.1939 150.856 31.9472C150.316 31.7005 149.726 31.5771 149.063 31.5771C148.4 31.5771 147.811 31.7005 147.27 31.9472C146.73 32.1939 146.288 32.5146 145.919 32.9339C145.551 33.3533 145.281 33.8221 145.084 34.3648C144.888 34.9075 144.789 35.4749 144.789 36.067C144.789 36.6591 144.888 37.2265 145.084 37.7692C145.281 38.3119 145.551 38.7806 145.919 39.2C146.288 39.6194 146.73 39.9401 147.27 40.1868C147.811 40.4335 148.4 40.5569 149.063 40.5569C149.726 40.5569 150.316 40.4335 150.856 40.1868C151.397 39.9401 151.839 39.6194 152.207 39.2C152.575 38.7806 152.846 38.3119 153.042 37.7692C153.239 37.2511 153.337 36.6591 153.337 36.067Z" fill="white"/>
<path d="M166.035 39.693H166.06V30.8613H167.116V41.2719H165.789L159.6 32.3662H159.575V41.2719H158.519V30.8613H159.846L166.035 39.693Z" fill="white"/>
<path d="M21.6387 54.6431C21.6142 54.6431 21.5896 54.6431 21.5896 54.6431H21.6387Z" stroke="white" stroke-width="5" stroke-miterlimit="10" stroke-linejoin="round"/>
<path d="M21.6387 55.2599C21.2948 55.2599 21.0247 54.9885 21.0247 54.6431L20.9755 51.1894C20.9755 51.0907 21.0492 42.8017 21.0738 41.0502C21.0738 40.4828 21.1475 39.9154 21.2457 39.348C21.7615 36.7823 22.4738 33.2546 28.1966 30.3189C29.8422 29.4801 30.9229 28.2466 31.4387 26.6184C31.4633 26.5444 31.4878 26.4704 31.5124 26.4211C30.5054 28.3453 28.6878 29.8008 26.1089 30.8369C19.944 33.2546 19.4036 38.4599 19.4527 40.5814C19.5019 41.9876 18.7405 43.2951 17.4878 43.9612C15.8422 44.8493 13.951 46.0088 13.9264 46.0088C13.6808 46.1568 13.337 46.1074 13.1405 45.8854C12.8703 45.5647 12.551 45.244 12.2317 44.8986C12.1089 44.7753 12.0598 44.6273 12.0598 44.4546V41.4449C12.0352 41.3462 11.8141 41.0502 11.5685 41.0502C11.3229 41.0502 11.1019 41.3462 11.0773 41.4449V42.6043C11.0773 42.8264 10.9545 43.0484 10.758 43.1471C10.5615 43.2458 10.3159 43.2458 10.1194 43.0977C7.88432 41.5189 5.89485 40.9021 5.87029 40.9021C5.60011 40.8281 5.42818 40.5814 5.42818 40.3101V24.6449C5.42818 24.6202 5.42818 24.5709 5.42818 24.5462C6.06678 20.4264 8.69485 17.096 12.2563 15.4925C12.1334 15.5171 12.0106 15.5418 11.8878 15.5665C9.03871 16.2079 7.29485 17.9101 6.50888 18.8475C6.33695 19.0449 6.06678 19.1189 5.82116 19.0202C5.57555 18.9215 5.42818 18.6995 5.42818 18.4528V7.27747C1.74397 5.35325 0.319408 2.17087 0.245724 2.04752C0.17204 1.85016 0.196601 1.62813 0.294847 1.45545C0.417654 1.28276 0.589584 1.18408 0.810636 1.18408H21.2948C36.2527 1.18408 48.4598 13.2722 48.5089 28.148C48.5334 39.0766 42.0984 48.9198 32.0527 53.1629C31.8071 53.2616 31.5124 53.1876 31.3405 52.9902C31.1685 52.7929 31.144 52.4722 31.2913 52.2502C31.9791 51.214 32.8141 49.7092 33.3545 47.8343C31.144 51.8061 27.2141 54.7665 22.8422 55.2352H22.8177C22.4001 55.2599 22.0071 55.2599 21.6387 55.2599ZM31.6106 19.3656C31.8071 19.3656 32.0773 19.4643 32.2492 19.9083C33.1826 22.1532 34.3615 28.5673 28.7861 31.429C23.6036 34.0687 23.0141 37.0043 22.4984 39.5947C22.4001 40.088 22.351 40.5814 22.3264 41.0748C22.3019 42.8264 22.2282 51.1154 22.2282 51.1894L22.2527 54.0017C22.4001 54.0017 22.572 54.0017 22.7194 53.977C28.8598 53.311 34.0422 47.2176 34.0422 40.6308C34.0422 40.3101 34.2878 40.0387 34.6071 40.014C34.9264 39.9894 35.2212 40.2114 35.2703 40.5321C35.2703 40.6061 35.565 42.4317 35.0247 46.0334C34.7054 48.0563 34.0422 49.7832 33.3545 51.1647C41.9264 46.7488 47.3299 37.8925 47.3054 28.1233C47.2317 13.9383 35.565 2.41756 21.2948 2.41756H1.86678C2.52993 3.45369 3.9545 5.2299 6.28783 6.34003C6.50888 6.43871 6.63169 6.66073 6.63169 6.90743V16.948C7.71239 15.9858 9.358 14.9004 11.5931 14.3823C14.7615 13.6422 17.2913 14.4317 17.3896 14.4563C17.6843 14.555 17.8562 14.8264 17.8071 15.1471C17.758 15.4431 17.5124 15.6651 17.1931 15.6651C11.8878 15.6651 7.44221 19.4643 6.60713 24.6942V39.9154C7.22116 40.1374 8.42467 40.6308 9.82467 41.4942V41.4695C9.82467 40.7295 10.5861 39.8414 11.544 39.8414C12.5019 39.8414 13.2633 40.7295 13.2633 41.4695V44.2325C13.4106 44.3806 13.5826 44.5532 13.7054 44.7013C14.3685 44.3065 15.6703 43.5171 16.8738 42.8757C17.7089 42.4317 18.2247 41.5436 18.2001 40.6061C18.151 38.2132 18.7405 32.3665 25.6177 29.6775C29.3755 28.1973 31.2177 25.7797 31.2177 22.2273C31.2177 21.5365 31.1194 20.8458 30.9475 20.1797C30.8492 19.785 31.0703 19.4889 31.3405 19.3902C31.4633 19.3902 31.5124 19.3656 31.6106 19.3656Z" fill="white"/>
</g>
<defs>
<clipPath id="clip0_253_1187">
<rect width="168" height="56" fill="white"/>
</clipPath>
</defs>
</svg>
