<svg width="156" height="45" viewBox="0 0 156 45" fill="none" xmlns="http://www.w3.org/2000/svg">
<g clip-path="url(#clip0_253_1170)">
<path d="M74.6092 21.9889V30.7413H70.7862V22.5359C70.7862 20.7221 70.2146 19.6568 68.6854 19.6568C66.9632 19.6568 66.0914 21.0028 66.0914 22.795V30.7413H62.2613V22.5647C62.2613 20.7221 61.6325 19.6496 60.1175 19.6496C58.3454 19.6496 57.5236 21.2475 57.5236 23.1405V30.7413H53.7078V16.5906H57.4236V17.915H57.9738C58.4185 17.3846 58.9728 16.9584 59.5979 16.666C60.223 16.3737 60.9039 16.2222 61.5932 16.2222C62.2824 16.2222 62.9633 16.3737 63.5884 16.666C64.2135 16.9584 64.7678 17.3846 65.2125 17.915H65.7413C66.1928 17.339 66.7769 16.8826 67.4431 16.5853C68.1093 16.288 68.8374 16.1589 69.5643 16.2091C73.1372 16.2091 74.5664 18.4908 74.5664 21.9673" fill="white"/>
<path d="M91.5233 24.105H81.4621C81.5692 26.5234 82.6911 27.9054 84.8777 27.9054C86.3069 27.9054 87.143 27.3584 87.5003 26.4227H91.3804C90.8088 29.2298 88.6221 31.1012 84.8206 31.1012C80.3973 31.1012 77.6748 28.1285 77.6748 23.6156C77.6748 19.1026 80.4116 16.2379 84.7563 16.2379C89.1009 16.2379 91.4805 19.0738 91.5305 22.9534L91.5233 24.105ZM81.605 21.5498H87.6146C87.544 20.8447 87.2009 20.1959 86.6594 19.7434C86.118 19.291 85.4215 19.0711 84.7205 19.1314C83.9962 19.075 83.2769 19.291 82.7015 19.7377C82.126 20.1843 81.7354 20.83 81.605 21.5498Z" fill="white"/>
<path d="M103.9 17.915H104.45V10.7173H108.273V30.7269H104.557V29.4169H104.014C103.558 29.9863 102.973 30.4361 102.307 30.7282C101.641 31.0202 100.915 31.1457 100.191 31.094C96.311 31.094 93.9887 27.9558 93.9887 23.6659C93.9887 19.3761 96.3682 16.2379 100.191 16.2379C100.9 16.1853 101.611 16.311 102.259 16.6038C102.908 16.8965 103.474 17.3471 103.907 17.915M104.622 23.6731C104.622 21.4419 103.585 19.4625 101.206 19.4625C98.8264 19.4625 97.8474 21.3051 97.8474 23.6731C97.8474 26.0412 98.9121 27.9126 101.206 27.9126C103.5 27.9126 104.622 25.9044 104.622 23.6731Z" fill="white"/>
<path d="M112.289 10.7317H116.226V14.2298H112.289V10.7317ZM116.169 30.7413H112.346V16.5906H116.169V30.7413Z" fill="white"/>
<path d="M132.912 25.9764C132.555 29.0282 130.018 31.094 126.481 31.094C122.136 31.094 119.406 28.1501 119.406 23.6659C119.406 19.1818 122.136 16.2379 126.481 16.2379C130.003 16.2379 132.412 18.2173 132.79 21.1108H128.989C128.732 20.0599 127.91 19.4337 126.552 19.4337C124.173 19.4337 123.272 21.3627 123.272 23.6156C123.272 25.8684 124.201 27.8838 126.552 27.8838C128.053 27.8838 128.96 27.164 129.175 25.9548L132.912 25.9764Z" fill="white"/>
<path d="M144.774 29.5105H144.231C143.732 30.0506 143.119 30.4717 142.438 30.7431C141.757 31.0146 141.024 31.1295 140.293 31.0796C137.042 31.0796 135.184 28.9634 135.184 26.3723C135.184 24.141 136.742 21.665 140.901 21.665H144.645V21.3051C144.645 19.8656 143.823 19.1026 142.159 19.1026C140.629 19.1026 139.893 19.6784 139.779 20.6141H135.985C136.092 17.915 138.528 16.2091 141.966 16.2091C145.767 16.2091 148.332 17.7206 148.332 21.521V30.7413H144.76L144.774 29.5105ZM144.638 25.0551V24.2418H141.63C139.993 24.2418 139.007 24.8464 139.007 26.0844C139.007 27.3224 139.936 28.0709 141.487 28.0709C141.891 28.0997 142.296 28.0441 142.678 27.9074C143.059 27.7708 143.409 27.5562 143.704 27.277C143.999 26.9978 144.234 26.6602 144.394 26.2852C144.553 25.9103 144.634 25.5062 144.631 25.0983" fill="white"/>
<path d="M156 10.7317H152.177V30.7413H156V10.7317Z" fill="white"/>
<path fill-rule="evenodd" clip-rule="evenodd" d="M0 0H44.6756V45H0V0ZM19.4651 25.2855C19.4651 22.8167 18.6648 20.5854 15.978 20.5854C13.3055 20.5854 12.5909 22.8095 12.5909 25.2855C12.5909 27.7615 13.4984 29.9856 15.978 29.9856C18.4576 29.9856 19.4651 27.2793 19.4651 25.2855ZM19.7152 31.4323C18.6251 32.4535 17.2083 33.0484 15.7207 33.1094C11.4333 33.1094 9.03227 29.6905 9.03227 25.2855C9.03227 20.8805 11.3832 17.44 16.0066 17.44C17.2612 17.4394 18.483 17.8429 19.4937 18.5916V11.869H23.0666V32.7711H20.537L19.7152 31.4323ZM29.6836 27.3008C29.6836 29.3234 30.3339 29.9928 31.7631 29.9928L31.7774 30C32.5484 29.9106 33.3034 29.7144 34.0211 29.417L35.6861 32.0801C34.2456 32.6615 32.7248 33.0159 31.1771 33.131C27.5113 33.131 26.0822 30.9429 26.0822 27.2505V11.8762H29.6908V17.7351H34.3498V20.8229H29.6836V27.3008Z" fill="white"/>
</g>
<defs>
<clipPath id="clip0_253_1170">
<rect width="156" height="45" fill="white"/>
</clipPath>
</defs>
</svg>
