<svg width="112" height="44" viewBox="0 0 112 44" fill="none" xmlns="http://www.w3.org/2000/svg">
<g clip-path="url(#clip0_253_1184)">
<path d="M2.78307 41.1312H43.3354V2.88944H2.78276V41.1312H2.78307ZM0.0889299 0.15625H46.051V43.8452H0.088623V0.15625H0.0889299Z" fill="white"/>
<path d="M76.6947 22.4699C76.6158 20.9396 75.4461 19.9399 73.814 19.9331C71.9078 19.9255 70.6638 20.8727 70.5681 22.4699H76.6947ZM80.9313 27.7829C80.1286 30.8714 78.1135 32.3888 75.2202 32.7268C71.1551 33.201 67.7024 31.7465 66.5042 27.5106C65.757 24.8697 65.881 22.2453 67.5281 19.9084C69.2612 17.4496 71.7627 16.8232 74.6375 17.0548C76.8057 17.2302 78.5272 18.0689 79.792 19.8629C80.9083 21.4463 80.9632 23.2231 80.9191 25.2263H70.442C70.059 26.9181 70.8228 28.4896 72.3534 29.2532C73.6108 29.8805 75.628 29.3559 76.5952 28.2033C76.8376 27.9271 76.953 27.7878 76.953 27.7878C78.069 27.7416 79.6754 27.7829 80.9313 27.7829ZM88.3555 32.3308H84.4862V17.4691H88.0689C88.107 17.8878 88.06 18.3186 88.0769 18.9175C88.5203 18.6144 88.7658 18.424 89.1405 18.1774C90.0116 17.6121 92.5287 16.6463 94.3857 17.0973C97.2566 17.7939 98.4662 19.216 98.7086 22.8164C98.9188 25.9483 98.7522 29.1062 98.7522 32.3191H94.6337V31.2369C94.6337 28.6977 94.6374 26.1579 94.6318 23.6184C94.6282 21.9477 94.0138 21.0762 92.5928 20.6924C91.1516 20.3029 89.7008 20.9803 88.9521 22.2062C88.6311 22.835 88.3988 23.5803 88.3816 24.2784C88.3166 26.9261 88.3555 29.5759 88.3555 32.3308ZM111.965 28.9345C111.965 30.1369 111.896 30.6285 111.896 32.0435C109.953 32.0435 108.269 32.2379 106.519 31.8306C105.149 31.5116 104.382 30.1916 104.376 28.775C104.366 26.2358 104.363 23.6967 104.352 21.1575C104.352 21.09 104.355 21.0224 104.353 20.8529C103.553 20.8529 102.597 20.8691 101.676 20.8691V17.4291H104.325V13.0743H108.243V17.3588H111.95V20.8H108.321C108.321 23.1833 108.291 25.4399 108.335 27.6949C108.354 28.6302 109.139 28.8425 109.887 28.9208C110.534 28.988 111.193 28.9345 111.965 28.9345ZM53.661 17.4468H57.4527C57.4917 18.0558 57.4626 18.7011 57.4945 19.7028C59.196 17.8285 61.2132 17.2122 63.4513 17.4478V21.0778C62.6851 21.0778 61.9769 21.0316 61.1168 21.1285C58.8139 21.434 57.7568 23.0984 57.7415 25.3849C57.7262 27.6793 57.7378 29.9743 57.7378 32.3265H53.661V17.4468ZM20.3043 25.0454C20.1107 24.1929 19.972 23.3239 19.7106 22.4928C19.3516 21.3518 18.543 20.5586 17.3482 20.4144C15.9977 20.2518 14.6393 20.294 13.7445 21.6293C12.8614 22.9484 12.6472 24.4379 12.9136 25.9144C13.3517 28.3469 14.6497 29.4677 16.5988 29.3968C18.7713 29.3174 20.2135 27.5794 20.3043 25.0454ZM19.9331 18.8616V11.2129H24.0234V32.3188H20.242C20.1936 31.8694 20.15 31.4657 20.0843 30.8503C19.5952 31.1666 19.1573 31.3368 18.8796 31.6484C17.281 33.4427 12.8059 32.7374 11.2366 31.2781C8.48849 28.7231 8.2068 22.699 10.2688 19.6371C12.2327 16.7199 17.0683 16.0064 19.1233 18.3959C19.2761 18.5737 19.5504 18.6474 19.9334 18.8616M27.198 17.3827H29.6424V11.2447H33.8333V17.3634H37.4762V20.8046H33.9005C33.9005 23.2185 33.8278 25.5499 33.972 27.8684C33.9963 28.2543 34.8554 28.9391 35.5035 28.9623C36.1224 28.9846 36.7944 28.9354 37.4989 28.9354V32.3219C35.6042 32.4298 33.7333 32.5123 31.9284 31.8076C30.7182 31.3359 29.6945 29.8063 29.6902 28.4783C29.6817 25.9825 29.6878 23.4874 29.6878 20.8636H27.198V17.3824V17.3827Z" fill="white"/>
</g>
<defs>
<clipPath id="clip0_253_1184">
<rect width="112" height="44" fill="white"/>
</clipPath>
</defs>
</svg>
