<svg width="95" height="13" viewBox="0 0 95 13" fill="none" xmlns="http://www.w3.org/2000/svg">
<path d="M6.23263 0C8.29368 0 9.87657 0.469314 10.9813 1.40794C12.086 2.33093 12.6384 3.73105 12.6384 5.6083V12.8123H9.02741V11.2401C8.30192 12.4134 6.94987 13 4.97126 13C3.94898 13 3.0586 12.8357 2.30014 12.5072C1.55816 12.1787 0.989306 11.725 0.593583 11.1462C0.197861 10.5674 0 9.91035 0 9.17509C0 8.0018 0.461676 7.07882 1.38503 6.40614C2.32487 5.73345 3.76761 5.39711 5.71324 5.39711H8.78009C8.78009 4.59928 8.52452 3.98917 8.01338 3.56679C7.50223 3.12876 6.73552 2.90975 5.71324 2.90975C5.00424 2.90975 4.30348 3.01925 3.61097 3.23827C2.93494 3.44164 2.35785 3.72322 1.87968 4.08303L0.494653 1.52527C1.22014 1.04031 2.08579 0.664861 3.09158 0.398916C4.11386 0.132972 5.16088 0 6.23263 0ZM5.93583 10.5361C6.59537 10.5361 7.18071 10.3953 7.69185 10.1137C8.20299 9.81649 8.56574 9.38628 8.78009 8.8231V7.53249H6.1337C4.55081 7.53249 3.75936 8.02527 3.75936 9.01083C3.75936 9.48014 3.94898 9.8556 4.32821 10.1372C4.72393 10.4031 5.25981 10.5361 5.93583 10.5361Z" fill="#FF4400"/>
<path d="M28.354 0.187725L22.7397 12.8123H18.7578L13.1682 0.187725H17.1502L20.8353 8.77617L24.6441 0.187725H28.354Z" fill="#FF4400"/>
<path d="M41.8583 6.54693C41.8583 6.59386 41.8335 6.92238 41.7841 7.53249H31.7179C31.8992 8.31468 32.3279 8.93261 33.004 9.38628C33.68 9.83995 34.5209 10.0668 35.5267 10.0668C36.2192 10.0668 36.8293 9.97292 37.3569 9.7852C37.901 9.58183 38.4039 9.26895 38.8656 8.84657L40.9184 10.9585C39.6653 12.3195 37.8351 13 35.4278 13C33.9273 13 32.6 12.7262 31.4458 12.1787C30.2916 11.6155 29.4012 10.8412 28.7747 9.8556C28.1481 8.87004 27.8348 7.7515 27.8348 6.5C27.8348 5.26414 28.1399 4.15343 28.75 3.16787C29.3765 2.16667 30.2257 1.3923 31.2974 0.844764C32.3857 0.281588 33.5975 0 34.9331 0C36.2357 0 37.4146 0.265945 38.4699 0.797834C39.5251 1.32972 40.3496 2.09627 40.9431 3.09747C41.5532 4.08303 41.8583 5.23285 41.8583 6.54693ZM34.9578 2.76895C34.084 2.76895 33.3502 3.00361 32.7566 3.47292C32.1631 3.94224 31.8003 4.58363 31.6684 5.39711H38.2226C38.0906 4.59928 37.7279 3.9657 37.1343 3.49639C36.5407 3.01143 35.8152 2.76895 34.9578 2.76895Z" fill="#FF4400"/>
<path d="M51.7726 0C53.4214 0 54.7487 0.469314 55.7545 1.40794C56.7768 2.34657 57.2879 3.73887 57.2879 5.58484V12.8123H53.4297V6.14801C53.4297 5.14681 53.1988 4.40373 52.7371 3.91877C52.2755 3.41817 51.6077 3.16787 50.7338 3.16787C49.761 3.16787 48.986 3.45728 48.4089 4.0361C47.8318 4.59928 47.5433 5.44404 47.5433 6.5704V12.8123H43.685V0.187725H47.3702V1.66606C47.8813 1.13418 48.5161 0.727436 49.2746 0.445848C50.033 0.148616 50.8657 0 51.7726 0Z" fill="#FF4400"/>
<path d="M73.4484 0.187725V12.8123H69.788V11.3105C69.2768 11.858 68.6668 12.2804 67.9578 12.5776C67.2487 12.8592 66.482 13 65.6576 13C63.9098 13 62.5248 12.5229 61.5025 11.5686C60.4803 10.6143 59.9691 9.19856 59.9691 7.3213V0.187725H63.8274V6.78159C63.8274 8.81528 64.726 9.83213 66.5233 9.83213C67.4466 9.83213 68.1886 9.55054 68.7492 8.98736C69.3098 8.40854 69.5901 7.55596 69.5901 6.4296V0.187725H73.4484Z" fill="#FF4400"/>
<path d="M89.315 6.54693C89.315 6.59386 89.2902 6.92238 89.2408 7.53249H79.1746C79.356 8.31468 79.7847 8.93261 80.4607 9.38628C81.1367 9.83995 81.9776 10.0668 82.9834 10.0668C83.6759 10.0668 84.286 9.97292 84.8136 9.7852C85.3577 9.58183 85.8606 9.26895 86.3223 8.84657L88.3751 10.9585C87.122 12.3195 85.2918 13 82.8845 13C81.384 13 80.0567 12.7262 78.9025 12.1787C77.7483 11.6155 76.858 10.8412 76.2314 9.8556C75.6049 8.87004 75.2916 7.7515 75.2916 6.5C75.2916 5.26414 75.5966 4.15343 76.2067 3.16787C76.8332 2.16667 77.6824 1.3923 78.7541 0.844764C79.8424 0.281588 81.0543 0 82.3898 0C83.6924 0 84.8713 0.265945 85.9266 0.797834C86.9819 1.32972 87.8063 2.09627 88.3999 3.09747C89.0099 4.08303 89.315 5.23285 89.315 6.54693ZM82.4146 2.76895C81.5407 2.76895 80.8069 3.00361 80.2134 3.47292C79.6198 3.94224 79.257 4.58363 79.1251 5.39711H85.6793C85.5474 4.59928 85.1846 3.9657 84.591 3.49639C83.9975 3.01143 83.272 2.76895 82.4146 2.76895Z" fill="#FF4400"/>
<path d="M92.6009 13C91.9249 13 91.356 12.781 90.8944 12.343C90.4327 11.9049 90.2019 11.3574 90.2019 10.7004C90.2019 10.0277 90.4327 9.48797 90.8944 9.08123C91.356 8.65884 91.9249 8.44765 92.6009 8.44765C93.277 8.44765 93.8458 8.65884 94.3075 9.08123C94.7692 9.48797 95 10.0277 95 10.7004C95 11.3574 94.7692 11.9049 94.3075 12.343C93.8458 12.781 93.277 13 92.6009 13Z" fill="#FF4400"/>
</svg>
