<svg width="168" height="56" viewBox="0 0 168 56" fill="none" xmlns="http://www.w3.org/2000/svg">
<g clip-path="url(#clip0_249_730)">
<path d="M55.8772 24.7434V11.9893H59.6842C60.9614 11.9893 62.0421 12.1866 62.9509 12.5567C63.8351 12.9267 64.5719 13.4448 65.1123 14.0862C65.6526 14.7276 66.0702 15.443 66.3158 16.2078C66.5614 16.9972 66.6842 17.7866 66.6842 18.576C66.6842 19.5135 66.5123 20.3769 66.1684 21.1417C65.8246 21.9064 65.3579 22.5478 64.793 23.0906C64.2281 23.6333 63.5404 24.028 62.7544 24.3241C61.9684 24.6201 61.1579 24.7434 60.2982 24.7434H55.8772ZM58.3825 22.3012H59.8561C60.4947 22.3012 61.0597 22.2271 61.5754 22.0545C62.0912 21.8818 62.5333 21.6351 62.9018 21.3144C63.2702 20.9937 63.5649 20.5743 63.7614 20.1056C63.9579 19.6368 64.0561 19.0448 64.0561 18.428C64.0561 17.5893 63.9333 16.9232 63.6632 16.4051C63.393 15.8871 63.0491 15.4677 62.6561 15.1716C62.2632 14.8756 61.8456 14.6782 61.4526 14.5796C61.0597 14.4809 60.6912 14.4069 60.3965 14.4069H58.3579L58.3825 22.3012Z" fill="white"/>
<path d="M66.7333 24.7434L72.4561 11.4712H72.6035L78.3263 24.7188H75.4281L71.7684 15.3937L73.586 14.1355L69.214 24.6941C69.1895 24.7434 66.7333 24.7434 66.7333 24.7434ZM70.6386 20.1302H74.4456L75.3298 22.2518H69.8526L70.6386 20.1302Z" fill="white"/>
<path d="M83.607 11.9893C84.393 11.9893 85.1053 12.0879 85.7193 12.2853C86.3333 12.4827 86.8491 12.7787 87.2912 13.1487C87.7088 13.5188 88.0281 13.9628 88.2491 14.5056C88.4702 15.0236 88.5684 15.6157 88.5684 16.2818C88.5684 16.7998 88.4947 17.3179 88.3228 17.836C88.1509 18.354 87.9053 18.8227 87.5614 19.2668C87.2175 19.7108 86.7509 20.0315 86.186 20.3029C85.6211 20.5743 84.9088 20.6976 84.0491 20.6976H82.2561V24.7434H79.7509V11.9893H83.607ZM84.0246 18.2553C84.393 18.2553 84.7123 18.1813 84.9825 18.058C85.2281 17.9346 85.4246 17.7619 85.5719 17.5646C85.7193 17.3672 85.8176 17.1699 85.8912 16.9478C85.9649 16.7258 85.9895 16.5285 85.9895 16.3558C85.9895 16.2078 85.9649 16.0351 85.9404 15.8377C85.8912 15.6157 85.8175 15.4183 85.6947 15.1963C85.5719 14.9743 85.3754 14.8016 85.1053 14.6536C84.8597 14.5056 84.4912 14.4315 84.0737 14.4315H82.2807V18.2553H84.0246ZM86.3825 19.8095L89.5263 24.7188H86.6035L83.386 19.8589L86.3825 19.8095Z" fill="white"/>
<path d="M93.7018 16.5285L93.6281 17.1699L93.9965 16.6765L98.1474 11.9893H101.389L96.1333 17.7126L101.389 24.7434H98.2456L94.3158 19.2915L93.7018 19.9082V24.7188H91.1719V11.9893H93.7018V16.5285Z" fill="white"/>
<path d="M119.589 11.9893V24.7434H117.084V19.5628H111.411V24.7434H108.905V11.9893H111.411V17.1452H117.084V11.9893H119.589Z" fill="white"/>
<path d="M121.751 18.3788C121.751 17.4906 121.923 16.6766 122.242 15.8871C122.586 15.0977 123.028 14.4069 123.618 13.7902C124.207 13.1735 124.895 12.7047 125.681 12.3594C126.467 12.014 127.302 11.8413 128.186 11.8413C129.07 11.8413 129.905 12.014 130.691 12.3594C131.477 12.7047 132.165 13.1735 132.779 13.7902C133.393 14.4069 133.86 15.0977 134.204 15.8871C134.547 16.6766 134.719 17.5153 134.719 18.3788C134.719 19.2915 134.547 20.1303 134.204 20.8951C133.86 21.6598 133.393 22.3752 132.779 22.9673C132.165 23.5594 131.477 24.0281 130.691 24.3735C129.905 24.7188 129.07 24.8669 128.186 24.8669C127.277 24.8669 126.442 24.6942 125.681 24.3735C124.919 24.0528 124.207 23.584 123.618 22.9673C123.028 22.3506 122.561 21.6845 122.242 20.8951C121.923 20.1303 121.751 19.2669 121.751 18.3788ZM124.33 18.3788C124.33 18.9462 124.428 19.4642 124.625 19.9576C124.821 20.451 125.116 20.8951 125.46 21.2651C125.828 21.6351 126.246 21.9312 126.712 22.1532C127.179 22.3506 127.719 22.4739 128.284 22.4739C128.825 22.4739 129.316 22.3752 129.782 22.1532C130.249 21.9558 130.642 21.6598 131.011 21.2651C131.354 20.8951 131.625 20.451 131.821 19.9576C132.018 19.4642 132.116 18.9462 132.116 18.3788C132.116 17.8114 132.018 17.2686 131.821 16.7752C131.625 16.2818 131.354 15.8378 130.986 15.4677C130.618 15.0977 130.225 14.8017 129.758 14.6043C129.291 14.4069 128.775 14.2836 128.235 14.2836C127.695 14.2836 127.179 14.3823 126.712 14.6043C126.246 14.8263 125.828 15.0977 125.46 15.4677C125.091 15.8378 124.821 16.2818 124.625 16.7752C124.428 17.2686 124.33 17.8114 124.33 18.3788Z" fill="white"/>
<path d="M140.688 11.9893C141.474 11.9893 142.186 12.0879 142.8 12.2853C143.414 12.4827 143.954 12.7787 144.372 13.1487C144.789 13.5188 145.109 13.9628 145.33 14.5056C145.551 15.0483 145.649 15.6157 145.649 16.2818C145.649 16.7998 145.575 17.3179 145.403 17.836C145.232 18.354 144.986 18.8227 144.642 19.2668C144.298 19.6862 143.832 20.0315 143.242 20.3029C142.677 20.5743 141.965 20.6976 141.105 20.6976H139.312V24.7434H136.807V11.9893H140.688ZM141.105 18.2553C141.474 18.2553 141.793 18.1813 142.063 18.058C142.309 17.9346 142.505 17.7619 142.653 17.5646C142.8 17.3672 142.898 17.1699 142.972 16.9478C143.046 16.7258 143.07 16.5285 143.07 16.3558C143.07 16.2078 143.046 16.0351 143.021 15.8377C142.972 15.6157 142.898 15.4183 142.775 15.1963C142.653 14.9743 142.456 14.8016 142.211 14.6536C141.965 14.5056 141.596 14.4315 141.179 14.4315H139.386V18.2553H141.105ZM143.463 19.8095L146.607 24.7188H143.684L140.467 19.8589L143.463 19.8095Z" fill="white"/>
<path d="M155.204 15.073C154.712 14.8016 154.221 14.5796 153.73 14.4069C153.239 14.2342 152.747 14.1602 152.33 14.1602C151.789 14.1602 151.372 14.2835 151.053 14.4809C150.733 14.7029 150.586 15.0236 150.586 15.4677C150.586 15.7637 150.709 16.0351 150.93 16.2818C151.151 16.5285 151.47 16.7258 151.839 16.9232C152.207 17.1205 152.6 17.2686 152.993 17.4166C153.361 17.5646 153.73 17.7126 154.098 17.91C154.467 18.1073 154.786 18.3293 155.081 18.6254C155.375 18.9214 155.597 19.2668 155.768 19.6862C155.94 20.1056 156.014 20.6236 156.014 21.2404C156.014 21.8818 155.842 22.4985 155.523 23.0412C155.179 23.584 154.712 24.0527 154.049 24.3734C153.411 24.7188 152.625 24.8915 151.667 24.8915C151.175 24.8915 150.684 24.8421 150.193 24.7434C149.702 24.6448 149.211 24.4967 148.719 24.2994C148.228 24.102 147.761 23.8307 147.319 23.5346L148.425 21.5857C148.719 21.8078 149.039 22.0051 149.407 22.1531C149.775 22.3012 150.119 22.4492 150.463 22.5478C150.832 22.6465 151.151 22.6959 151.446 22.6959C151.74 22.6959 152.06 22.6465 152.354 22.5725C152.649 22.4985 152.919 22.3505 153.116 22.1285C153.312 21.9311 153.411 21.6351 153.411 21.265C153.411 21.0183 153.337 20.7716 153.165 20.5743C152.993 20.3769 152.772 20.1796 152.502 20.0069C152.207 19.8342 151.912 19.6862 151.568 19.5628C151.175 19.4148 150.782 19.2421 150.365 19.0448C149.947 18.8474 149.554 18.6007 149.211 18.3293C148.842 18.0333 148.547 17.6879 148.326 17.2686C148.105 16.8492 147.982 16.3311 147.982 15.7144C147.982 14.9743 148.154 14.3329 148.474 13.7901C148.793 13.2474 149.26 12.828 149.874 12.5073C150.463 12.1866 151.151 12.0139 151.937 11.9893C152.968 11.9893 153.779 12.1126 154.442 12.3593C155.081 12.606 155.646 12.902 156.161 13.2227L155.204 15.073Z" fill="white"/>
<path d="M158.225 11.9893H166.87V14.4069H160.705V17.1205H166.158V19.5382H160.705V22.3012H167.091V24.7188H158.2L158.225 11.9893Z" fill="white"/>
<path d="M55.8772 30.8618H58.8983C59.9544 30.8618 60.7895 31.0838 61.4035 31.5526C62.0175 32.0213 62.3123 32.712 62.3123 33.6495C62.3123 34.5869 62.0175 35.2777 61.4035 35.7464C60.7895 36.2151 59.9544 36.4371 58.8983 36.4371H56.9333V41.2724H55.8772V30.8618ZM56.9333 35.475H58.6281C59.0947 35.475 59.4877 35.4257 59.8316 35.327C60.1509 35.2283 60.4211 35.105 60.6175 34.9323C60.814 34.7596 60.9614 34.5869 61.0351 34.3649C61.1333 34.1429 61.1579 33.8962 61.1579 33.6495C61.1579 33.4028 61.1088 33.1808 61.0351 32.9587C60.9368 32.7367 60.814 32.5393 60.6175 32.3667C60.4211 32.194 60.1509 32.0706 59.8316 31.972C59.5123 31.8733 59.1193 31.8239 58.6281 31.8239H56.9333V35.475Z" fill="white"/>
<path d="M67.2983 41.2724H66.2421V30.8618H69.4351C70.4912 30.8618 71.3263 31.0838 71.9404 31.5526C72.5544 32.0213 72.8491 32.712 72.8491 33.6495C72.8491 34.3649 72.6281 34.9816 72.1614 35.475C71.6948 35.9684 71.0562 36.2645 70.1965 36.3385L73.193 41.2724H71.9158L69.0667 36.4371H67.2983V41.2724ZM67.2983 35.475H69.1649C69.6316 35.475 70.0246 35.4257 70.3684 35.327C70.6877 35.2283 70.9579 35.105 71.1544 34.9323C71.3509 34.7596 71.4983 34.5869 71.5719 34.3649C71.6702 34.1429 71.6948 33.8962 71.6948 33.6495C71.6948 33.4028 71.6456 33.1808 71.5719 32.9587C71.4737 32.7367 71.3509 32.5393 71.1544 32.3667C70.9579 32.194 70.6877 32.0706 70.3684 31.972C70.0491 31.8733 69.6316 31.8239 69.1649 31.8239H67.2983V35.475Z" fill="white"/>
<path d="M86.9965 36.067C86.9965 36.8564 86.8491 37.5965 86.579 38.2626C86.3088 38.9287 85.9404 39.4961 85.4491 39.9895C84.9579 40.4828 84.393 40.8529 83.7298 41.1243C83.0667 41.3956 82.3544 41.5436 81.593 41.5436C80.8316 41.5436 80.0947 41.3956 79.4561 41.1243C78.793 40.8529 78.2281 40.4828 77.7368 39.9895C77.2456 39.4961 76.8772 38.9287 76.607 38.2626C76.3368 37.5965 76.1895 36.8564 76.1895 36.067C76.1895 35.2776 76.3368 34.5375 76.607 33.8714C76.8772 33.2053 77.2456 32.6379 77.7368 32.1445C78.2281 31.6511 78.793 31.2811 79.4561 31.0097C80.1193 30.7383 80.8316 30.5903 81.593 30.5903C82.3544 30.5903 83.0667 30.7383 83.7298 31.0097C84.393 31.2811 84.9579 31.6758 85.4491 32.1445C85.9404 32.6132 86.3088 33.2053 86.579 33.8714C86.8737 34.5375 86.9965 35.2776 86.9965 36.067ZM85.8667 36.067C85.8667 35.4749 85.7684 34.9075 85.5719 34.3648C85.3754 33.8221 85.1053 33.3533 84.7368 32.9339C84.3684 32.5146 83.9263 32.1939 83.386 31.9472C82.8702 31.7005 82.2562 31.5771 81.593 31.5771C80.9298 31.5771 80.3404 31.7005 79.8 31.9472C79.2842 32.1939 78.8175 32.5146 78.4491 32.9339C78.0807 33.3533 77.8105 33.8221 77.614 34.3648C77.4176 34.9075 77.3193 35.4749 77.3193 36.067C77.3193 36.6591 77.4176 37.2265 77.614 37.7692C77.8105 38.3119 78.0807 38.7806 78.4491 39.2C78.8175 39.6194 79.2597 39.9401 79.8 40.1868C80.3158 40.4335 80.9298 40.5569 81.593 40.5569C82.2562 40.5569 82.8456 40.4335 83.386 40.1868C83.9018 39.9401 84.3684 39.6194 84.7368 39.2C85.1053 38.7806 85.3754 38.3119 85.5719 37.7692C85.7684 37.2511 85.8667 36.6591 85.8667 36.067Z" fill="white"/>
<path d="M90.9263 30.8618H94.3649C95.0035 30.8618 95.6667 30.9605 96.3053 31.1825C96.9439 31.4045 97.5333 31.7253 98.0737 32.1693C98.5895 32.6134 99.0316 33.1561 99.3509 33.7975C99.6702 34.4389 99.8421 35.2037 99.8421 36.0671C99.8421 36.9305 99.6702 37.6953 99.3509 38.3367C99.0316 38.9781 98.614 39.5208 98.0737 39.9649C97.5579 40.409 96.9684 40.7297 96.3053 40.9517C95.6667 41.1737 95.0035 41.2724 94.3649 41.2724H90.9263V30.8618ZM91.9825 40.3103H94.0456C94.8316 40.3103 95.5193 40.1869 96.1088 39.9402C96.6983 39.6935 97.1649 39.3728 97.5579 38.9781C97.9509 38.5834 98.2211 38.1393 98.4176 37.6213C98.614 37.1032 98.6877 36.5852 98.6877 36.0424C98.6877 35.4997 98.5895 34.9816 98.4176 34.4636C98.2456 33.9455 97.9509 33.5015 97.5579 33.1067C97.1649 32.712 96.6983 32.3913 96.1088 32.1446C95.5193 31.8979 94.8316 31.7746 94.0456 31.7746H91.9825V40.3103Z" fill="white"/>
<path d="M111.312 37.3993C111.312 37.8433 111.263 38.2874 111.165 38.7808C111.067 39.2742 110.87 39.7182 110.575 40.1129C110.281 40.5323 109.912 40.8777 109.421 41.1244C108.93 41.3957 108.291 41.5191 107.53 41.5191C106.744 41.5191 106.105 41.3711 105.614 41.1244C105.123 40.8777 104.73 40.5076 104.46 40.1129C104.189 39.7182 103.993 39.2495 103.87 38.7808C103.772 38.2874 103.723 37.8433 103.723 37.3993V30.8618H104.779V37.2759C104.779 37.7693 104.828 38.2134 104.926 38.5587C105.025 38.9041 105.147 39.2248 105.319 39.4715C105.491 39.7182 105.663 39.9156 105.86 40.0636C106.056 40.2116 106.253 40.3103 106.449 40.3843C106.646 40.4583 106.842 40.5076 107.039 40.5323C107.235 40.557 107.382 40.557 107.53 40.557C107.653 40.557 107.825 40.5323 107.996 40.5323C108.193 40.5076 108.389 40.4583 108.586 40.3843C108.782 40.3103 108.979 40.1869 109.2 40.0636C109.396 39.9156 109.568 39.7182 109.74 39.4715C109.912 39.2248 110.035 38.9288 110.133 38.5587C110.232 38.2134 110.281 37.7693 110.281 37.2759V30.8618H111.337L111.312 37.3993Z" fill="white"/>
<path d="M124.428 39.6194C124.256 39.8908 124.035 40.1375 123.789 40.3595C123.544 40.5815 123.225 40.8036 122.905 40.9762C122.561 41.1489 122.218 41.2723 121.825 41.371C121.432 41.4696 121.039 41.519 120.597 41.519C119.835 41.519 119.098 41.371 118.46 41.0996C117.796 40.8282 117.232 40.4582 116.74 39.9648C116.249 39.4714 115.881 38.904 115.611 38.2379C115.34 37.5718 115.193 36.8318 115.193 36.0423C115.193 35.2529 115.34 34.5128 115.611 33.8467C115.881 33.1807 116.249 32.6132 116.74 32.1199C117.232 31.6265 117.796 31.2564 118.46 30.9851C119.123 30.7137 119.835 30.5657 120.597 30.5657C121.235 30.5657 121.874 30.689 122.537 30.9604C123.175 31.2071 123.74 31.6265 124.182 32.2185L123.249 32.9093C123.151 32.7366 123.004 32.5639 122.807 32.4159C122.611 32.2432 122.414 32.0952 122.168 31.9718C121.923 31.8485 121.677 31.7498 121.407 31.6758C121.137 31.6018 120.867 31.5525 120.597 31.5525C119.933 31.5525 119.344 31.6758 118.804 31.9225C118.288 32.1692 117.821 32.4899 117.453 32.9093C117.084 33.3287 116.814 33.7974 116.618 34.3401C116.421 34.8829 116.323 35.4503 116.323 36.0423C116.323 36.6344 116.421 37.2018 116.618 37.7445C116.814 38.2873 117.084 38.756 117.453 39.1754C117.821 39.5947 118.263 39.9155 118.804 40.1622C119.319 40.4088 119.933 40.5322 120.597 40.5322C120.867 40.5322 121.137 40.5075 121.407 40.4582C121.677 40.4088 121.947 40.3348 122.193 40.2115C122.439 40.0881 122.684 39.9401 122.93 39.7428C123.151 39.5454 123.372 39.2987 123.568 38.978L124.428 39.6194Z" fill="white"/>
<path d="M131.502 41.2724H130.446V31.8239H126.982V30.8618H134.989V31.8239H131.526L131.502 41.2724Z" fill="white"/>
<path d="M139.607 41.2724H138.551V30.8618H139.607V41.2724Z" fill="white"/>
<path d="M154.467 36.067C154.467 36.8564 154.319 37.5965 154.049 38.2626C153.779 38.9287 153.386 39.4961 152.919 39.9895C152.428 40.4828 151.863 40.8529 151.2 41.1243C150.537 41.3956 149.825 41.5436 149.063 41.5436C148.302 41.5436 147.589 41.3956 146.926 41.1243C146.263 40.8529 145.698 40.4828 145.207 39.9895C144.716 39.4961 144.347 38.9287 144.077 38.2626C143.807 37.5965 143.66 36.8564 143.66 36.067C143.66 35.2776 143.782 34.5375 144.077 33.8714C144.347 33.2053 144.74 32.6379 145.207 32.1445C145.698 31.6511 146.263 31.2811 146.926 31.0097C147.589 30.7383 148.302 30.5903 149.063 30.5903C149.825 30.5903 150.537 30.7383 151.2 31.0097C151.863 31.2811 152.428 31.6758 152.919 32.1445C153.411 32.6132 153.779 33.2053 154.049 33.8714C154.344 34.5375 154.467 35.2776 154.467 36.067ZM153.337 36.067C153.337 35.4749 153.239 34.9075 153.042 34.3648C152.846 33.8221 152.575 33.3533 152.207 32.9339C151.839 32.5146 151.397 32.1939 150.856 31.9472C150.316 31.7005 149.726 31.5771 149.063 31.5771C148.4 31.5771 147.811 31.7005 147.27 31.9472C146.73 32.1939 146.288 32.5146 145.919 32.9339C145.551 33.3533 145.281 33.8221 145.084 34.3648C144.888 34.9075 144.789 35.4749 144.789 36.067C144.789 36.6591 144.888 37.2265 145.084 37.7692C145.281 38.3119 145.551 38.7806 145.919 39.2C146.288 39.6194 146.73 39.9401 147.27 40.1868C147.811 40.4335 148.4 40.5569 149.063 40.5569C149.726 40.5569 150.316 40.4335 150.856 40.1868C151.397 39.9401 151.839 39.6194 152.207 39.2C152.575 38.7806 152.846 38.3119 153.042 37.7692C153.239 37.2511 153.337 36.6591 153.337 36.067Z" fill="white"/>
<path d="M166.035 39.6935H166.06V30.8618H167.116V41.2724H165.789L159.6 32.3667H159.575V41.2724H158.519V30.8618H159.846L166.035 39.6935Z" fill="white"/>
<path d="M21.6386 54.6431C21.614 54.6431 21.5895 54.6431 21.5895 54.6431H21.6386Z" stroke="white" stroke-width="5" stroke-miterlimit="10" stroke-linejoin="round"/>
<path d="M21.6386 55.2599C21.2947 55.2599 21.0245 54.9885 21.0245 54.6431L20.9754 51.1894C20.9754 51.0907 21.0491 42.8017 21.0737 41.0502C21.0737 40.4828 21.1474 39.9154 21.2456 39.348C21.7614 36.7823 22.4737 33.2546 28.1965 30.3189C29.8421 29.4801 30.9228 28.2466 31.4386 26.6184C31.4631 26.5444 31.4877 26.4704 31.5123 26.4211C30.5052 28.3453 28.6877 29.8008 26.1088 30.8369C19.9438 33.2546 19.4035 38.4599 19.4526 40.5814C19.5017 41.9876 18.7403 43.2951 17.4877 43.9612C15.8421 44.8493 13.9509 46.0088 13.9263 46.0088C13.6807 46.1568 13.3368 46.1074 13.1403 45.8854C12.8702 45.5647 12.5509 45.244 12.2316 44.8986C12.1088 44.7753 12.0596 44.6273 12.0596 44.4546V41.4449C12.0351 41.3462 11.814 41.0502 11.5684 41.0502C11.3228 41.0502 11.1017 41.3462 11.0772 41.4449V42.6043C11.0772 42.8264 10.9544 43.0484 10.7579 43.1471C10.5614 43.2458 10.3158 43.2458 10.1193 43.0977C7.8842 41.5189 5.89472 40.9021 5.87016 40.9021C5.59999 40.8281 5.42806 40.5814 5.42806 40.3101V24.6449C5.42806 24.6202 5.42806 24.5709 5.42806 24.5462C6.06665 20.4264 8.69473 17.096 12.2561 15.4925C12.1333 15.5171 12.0105 15.5418 11.8877 15.5665C9.03858 16.2079 7.29472 17.9101 6.50876 18.8475C6.33683 19.0449 6.06665 19.1189 5.82104 19.0202C5.57543 18.9215 5.42806 18.6995 5.42806 18.4528V7.27747C1.74385 5.35325 0.319286 2.17087 0.245602 2.04752C0.171918 1.85016 0.196479 1.62813 0.294725 1.45545C0.417532 1.28276 0.589462 1.18408 0.810514 1.18408H21.2947C36.2526 1.18408 48.4596 13.2722 48.5088 28.148C48.5333 39.0766 42.0982 48.9198 32.0526 53.1629C31.807 53.2616 31.5123 53.1876 31.3403 52.9902C31.1684 52.7929 31.1438 52.4722 31.2912 52.2502C31.9789 51.214 32.814 49.7092 33.3544 47.8343C31.1438 51.8061 27.214 54.7665 22.8421 55.2352H22.8175C22.4 55.2599 22.007 55.2599 21.6386 55.2599ZM31.6105 19.3656C31.807 19.3656 32.0772 19.4643 32.2491 19.9083C33.1824 22.1532 34.3614 28.5673 28.7859 31.429C23.6035 34.0687 23.014 37.0043 22.4982 39.5947C22.4 40.088 22.3509 40.5814 22.3263 41.0748C22.3017 42.8264 22.2281 51.1154 22.2281 51.1894L22.2526 54.0017C22.4 54.0017 22.5719 54.0017 22.7193 53.977C28.8596 53.311 34.0421 47.2176 34.0421 40.6308C34.0421 40.3101 34.2877 40.0387 34.607 40.014C34.9263 39.9894 35.221 40.2114 35.2702 40.5321C35.2702 40.6061 35.5649 42.4317 35.0246 46.0334C34.7053 48.0563 34.0421 49.7832 33.3544 51.1647C41.9263 46.7488 47.3298 37.8925 47.3053 28.1233C47.2316 13.9383 35.5649 2.41756 21.2947 2.41756H1.86665C2.52981 3.45369 3.95437 5.2299 6.28771 6.34003C6.50876 6.43871 6.63157 6.66073 6.63157 6.90743V16.948C7.71227 15.9858 9.35788 14.9004 11.593 14.3823C14.7614 13.6422 17.2912 14.4317 17.3895 14.4563C17.6842 14.555 17.8561 14.8264 17.807 15.1471C17.7579 15.4431 17.5123 15.6651 17.193 15.6651C11.8877 15.6651 7.44209 19.4643 6.60701 24.6942V39.9154C7.22104 40.1374 8.42455 40.6308 9.82455 41.4942V41.4695C9.82455 40.7295 10.586 39.8414 11.5438 39.8414C12.5017 39.8414 13.2631 40.7295 13.2631 41.4695V44.2325C13.4105 44.3806 13.5824 44.5532 13.7053 44.7013C14.3684 44.3065 15.6702 43.5171 16.8737 42.8757C17.7088 42.4317 18.2245 41.5436 18.2 40.6061C18.1509 38.2132 18.7403 32.3665 25.6175 29.6775C29.3754 28.1973 31.2175 25.7797 31.2175 22.2273C31.2175 21.5365 31.1193 20.8458 30.9474 20.1797C30.8491 19.785 31.0702 19.4889 31.3403 19.3902C31.4631 19.3902 31.5123 19.3656 31.6105 19.3656Z" fill="white"/>
</g>
<defs>
<clipPath id="clip0_249_730">
<rect width="168" height="56" fill="white"/>
</clipPath>
</defs>
</svg>
