<svg width="154" height="44" viewBox="0 0 154 44" fill="none" xmlns="http://www.w3.org/2000/svg">
<g clip-path="url(#clip0_249_639)">
<path d="M44.1028 0H0V44H44.1028V0Z" fill="url(#paint0_linear_249_639)"/>
<path d="M73.6528 21.5003V30.0582H69.8788V22.0351C69.8788 20.2616 69.3145 19.22 67.8049 19.22C66.1048 19.22 65.2442 20.5361 65.2442 22.2885V30.0582H61.4631V22.0633C61.4631 20.2616 60.8424 19.213 59.3469 19.213C57.5975 19.213 56.7862 20.7754 56.7862 22.6263V30.0582H53.0193V16.222H56.6875V17.5169H57.2306C57.6697 16.9983 58.2168 16.5816 58.8339 16.2957C59.451 16.0098 60.1232 15.8617 60.8036 15.8617C61.484 15.8617 62.1561 16.0098 62.7732 16.2957C63.3903 16.5816 63.9375 16.9983 64.3765 17.5169H64.8985C65.3442 16.9537 65.9209 16.5074 66.5785 16.2168C67.2362 15.9261 67.9549 15.7999 68.6725 15.849C72.1996 15.849 73.6105 18.0799 73.6105 21.4792" fill="white"/>
<path d="M90.35 23.5695H80.4177C80.5236 25.9341 81.6311 27.2854 83.7896 27.2854C85.2005 27.2854 86.0258 26.7505 86.3785 25.8356H90.209C89.6446 28.5803 87.486 30.4101 83.7332 30.4101C79.3667 30.4101 76.679 27.5036 76.679 23.0909C76.679 18.6782 79.3808 15.8772 83.6697 15.8772C87.9587 15.8772 90.3077 18.6501 90.3571 22.4434L90.35 23.5695ZM80.5588 21.0711H86.4914C86.4217 20.3816 86.083 19.7472 85.5485 19.3048C85.0139 18.8624 84.3265 18.6474 83.6344 18.7064C82.9194 18.6512 82.2093 18.8624 81.6412 19.2992C81.0732 19.7359 80.6876 20.3672 80.5588 21.0711Z" fill="white"/>
<path d="M102.568 17.517H103.111V10.4792H106.885V30.0442H103.217V28.7633H102.681C102.231 29.32 101.653 29.7599 100.996 30.0454C100.338 30.331 99.6218 30.4537 98.9068 30.4031C95.0764 30.4031 92.7838 27.3347 92.7838 23.1402C92.7838 18.9457 95.1328 15.8772 98.9068 15.8772C99.6065 15.8258 100.308 15.9487 100.948 16.2349C101.589 16.5212 102.148 16.9617 102.575 17.517M103.28 23.1472C103.28 20.9655 102.258 19.0301 99.9085 19.0301C97.5594 19.0301 96.593 20.8318 96.593 23.1472C96.593 25.4626 97.6441 27.2924 99.9085 27.2924C102.173 27.2924 103.28 25.3289 103.28 23.1472Z" fill="white"/>
<path d="M110.85 10.4932H114.736V13.9135H110.85V10.4932ZM114.68 30.0581H110.906V16.2219H114.68V30.0581Z" fill="white"/>
<path d="M131.208 25.3993C130.855 28.3833 128.351 30.4031 124.859 30.4031C120.57 30.4031 117.875 27.5247 117.875 23.1402C117.875 18.7556 120.57 15.8772 124.859 15.8772C128.337 15.8772 130.714 17.8126 131.088 20.6418H127.335C127.081 19.6142 126.27 19.002 124.93 19.002C122.581 19.002 121.692 20.8881 121.692 23.0909C121.692 25.2937 122.609 27.2643 124.93 27.2643C126.411 27.2643 127.307 26.5605 127.519 25.3782L131.208 25.3993Z" fill="white"/>
<path d="M142.918 28.8549H142.382C141.889 29.383 141.285 29.7947 140.612 30.0602C139.94 30.3256 139.216 30.438 138.495 30.3891C135.285 30.3891 133.451 28.32 133.451 25.7864C133.451 23.6047 134.989 21.1837 139.095 21.1837H142.791V20.8318C142.791 19.4243 141.98 18.6783 140.336 18.6783C138.826 18.6783 138.1 19.2413 137.987 20.1562H134.241C134.347 17.5171 136.753 15.8491 140.146 15.8491C143.898 15.8491 146.431 17.327 146.431 21.043V30.0583H142.904L142.918 28.8549ZM142.784 24.4985V23.7032H139.814C138.199 23.7032 137.225 24.2944 137.225 25.5049C137.225 26.7154 138.142 27.4473 139.673 27.4473C140.072 27.4755 140.472 27.4211 140.849 27.2875C141.225 27.1539 141.57 26.944 141.862 26.671C142.153 26.3981 142.385 26.0679 142.543 25.7013C142.7 25.3347 142.78 24.9396 142.777 24.5407" fill="white"/>
<path d="M154 10.4932H150.226V30.0581H154V10.4932Z" fill="white"/>
<path d="M15.7732 20.1279C18.4256 20.1279 19.2156 22.3096 19.2156 24.7236C19.2156 26.673 18.221 29.3192 15.7732 29.3192C13.3254 29.3192 12.4295 27.1446 12.4295 24.7236C12.4295 22.3026 13.1349 20.1279 15.7732 20.1279ZM15.5192 32.3736C16.9877 32.314 18.3863 31.7323 19.4625 30.7338L20.2737 32.0428H22.7709V11.6052H19.2438V18.1785C18.2461 17.4464 17.0399 17.0519 15.8014 17.0524C11.2373 17.0524 8.9165 20.4165 8.9165 24.7236C8.9165 29.0307 11.2867 32.3736 15.5192 32.3736Z" fill="white"/>
<path d="M31.3559 29.3263C29.945 29.3263 29.3031 28.6718 29.3031 26.6942V20.3602H33.9095V17.341H29.3102V11.6123H25.7478V26.6449C25.7478 30.2553 27.1586 32.3948 30.7774 32.3948C32.3052 32.2823 33.8066 31.9357 35.2286 31.3673L33.585 28.7633C32.8765 29.0541 32.1311 29.2459 31.37 29.3334" fill="white"/>
</g>
<defs>
<linearGradient id="paint0_linear_249_639" x1="0.194413" y1="22.2065" x2="44.1821" y2="22.2065" gradientUnits="userSpaceOnUse">
<stop stop-color="#6072B4"/>
<stop offset="1" stop-color="#788AC5"/>
</linearGradient>
<clipPath id="clip0_249_639">
<rect width="154" height="44" fill="white"/>
</clipPath>
</defs>
</svg>
