<svg width="112" height="44" viewBox="0 0 112 44" fill="none" xmlns="http://www.w3.org/2000/svg">
<g clip-path="url(#clip0_249_653)">
<path d="M2.78312 41.1312H43.3354V2.88944H2.78282V41.1312H2.78312ZM0.0889871 0.15625H46.051V43.8452H0.0886803V0.15625H0.0889871Z" fill="#EF4B23"/>
<path d="M76.6945 22.4696C76.6157 20.9394 75.446 19.9396 73.8138 19.9329C71.9077 19.9253 70.6637 20.8725 70.568 22.4696H76.6945ZM80.9312 27.7826C80.1285 30.8712 78.1134 32.3886 75.2201 32.7265C71.155 33.2007 67.7023 31.7463 66.5041 27.5104C65.7569 24.8695 65.8809 22.245 67.528 19.9081C69.2611 17.4493 71.7626 16.823 74.6374 17.0546C76.8056 17.23 78.527 18.0687 79.7919 19.8626C80.9082 21.446 80.9631 23.2228 80.9189 25.226H70.4419C70.0589 26.9179 70.8227 28.4894 72.3532 29.253C73.6107 29.8803 75.6279 29.3556 76.5951 28.2031C76.8375 27.9268 76.9529 27.7875 76.9529 27.7875C78.0689 27.7414 79.6753 27.7826 80.9312 27.7826ZM88.3554 32.3305H84.4861V17.4689H88.0688C88.1069 17.8875 88.0599 18.3183 88.0768 18.9172C88.5202 18.6141 88.7657 18.4238 89.1403 18.1772C90.0115 17.6119 92.5286 16.646 94.3856 17.097C97.2565 17.7937 98.4661 19.2158 98.7085 22.8161C98.9187 25.9481 98.7521 29.106 98.7521 32.3189H94.6336V31.2366C94.6336 28.6975 94.6372 26.1577 94.6317 23.6182C94.628 21.9474 94.0137 21.076 92.5927 20.6922C91.1514 20.3026 89.7006 20.98 88.9519 22.2059C88.631 22.8348 88.3987 23.58 88.3815 24.2782C88.3164 26.9258 88.3554 29.5756 88.3554 32.3305ZM111.964 28.9343C111.964 30.1366 111.896 30.6283 111.896 32.0433C109.953 32.0433 108.269 32.2376 106.518 31.8303C105.149 31.5113 104.382 30.1913 104.376 28.7748C104.366 26.2356 104.363 23.6964 104.352 21.1573C104.351 21.0897 104.355 21.0222 104.353 20.8526C103.553 20.8526 102.597 20.8688 101.676 20.8688V17.4289H104.325V13.0741H108.243V17.3586H111.95V20.7998H108.321C108.321 23.1831 108.291 25.4396 108.335 27.6946C108.354 28.6299 109.139 28.8423 109.887 28.9205C110.534 28.9877 111.193 28.9343 111.964 28.9343ZM53.6609 17.4466H57.4526C57.4916 18.0556 57.4624 18.7009 57.4944 19.7025C59.1958 17.8282 61.2131 17.2119 63.4512 17.4475V21.0775C62.685 21.0775 61.9768 21.0314 61.1167 21.1282C58.8138 21.4338 57.7567 23.0981 57.7414 25.3846C57.726 27.679 57.7377 29.9741 57.7377 32.3262H53.6609V17.4466ZM20.3042 25.0451C20.1106 24.1926 19.9719 23.3236 19.7105 22.4925C19.3515 21.3516 18.5429 20.5584 17.348 20.4141C15.9976 20.2516 14.6392 20.2938 13.7444 21.629C12.8613 22.9481 12.6471 24.4377 12.9134 25.9141C13.3516 28.3467 14.6496 29.4675 16.5987 29.3966C18.7712 29.3171 20.2134 27.5791 20.3042 25.0451ZM19.9329 18.8613V11.2126H24.0232V32.3186H20.2419C20.1934 31.8691 20.1499 31.4655 20.0842 30.8501C19.5951 31.1663 19.1572 31.3365 18.8795 31.6482C17.2808 33.4424 12.8057 32.7372 11.2365 31.2779C8.48837 28.7228 8.20669 22.6988 10.2687 19.6368C12.2325 16.7197 17.0682 16.0062 19.1232 18.3956C19.276 18.5735 19.5503 18.6471 19.9332 18.8613M27.1979 17.3824H29.6423V11.2444H33.8332V17.3632H37.4761V20.8043H33.9004C33.9004 23.2182 33.8277 25.5496 33.9719 27.8682C33.9961 28.2541 34.8553 28.9388 35.5034 28.9621C36.1223 28.9844 36.7943 28.9352 37.4988 28.9352V32.3216C35.604 32.4295 33.7332 32.512 31.9283 31.8074C30.7181 31.3356 29.6944 29.806 29.6901 28.4781C29.6815 25.9823 29.6877 23.4871 29.6877 20.8633H27.1979V17.3821V17.3824Z" fill="white"/>
</g>
<defs>
<clipPath id="clip0_249_653">
<rect width="112" height="44" fill="white"/>
</clipPath>
</defs>
</svg>
