<?xml version="1.0" encoding="utf-8"?><svg xmlns="http://www.w3.org/2000/svg" xmlns:xlink="http://www.w3.org/1999/xlink">
    <symbol viewBox="0 0 13 10" id="arrow" xmlns="http://www.w3.org/2000/svg">
        <path fill-rule="evenodd" clip-rule="evenodd" d="m8.445.199 4.355 4.32a.675.675 0 0 1 0 .961L8.445 9.801a.688.688 0 0 1-.967 0 .675.675 0 0 1 0-.96l3.186-3.162H.684A.682.682 0 0 1 0 5c0-.375.306-.679.684-.679h9.98L7.478 1.159a.675.675 0 0 1 0-.96.688.688 0 0 1 .967 0Z" />
    </symbol>
    <symbol viewBox="0 0 13 8" id="arrow-down" xmlns="http://www.w3.org/2000/svg">
        <path fill-rule="evenodd" clip-rule="evenodd" d="M.793.793a1 1 0 0 1 1.414 0L6.5 5.086 10.793.793a1 1 0 1 1 1.414 1.414l-5 5a1 1 0 0 1-1.414 0l-5-5a1 1 0 0 1 0-1.414Z" />
    </symbol>
    <symbol viewBox="0 0 7 7" id="arrow-out" xmlns="http://www.w3.org/2000/svg">
        <path fill-rule="evenodd" clip-rule="evenodd" d="M.7 0h5.4a.6.6 0 0 1 .6.6V6a.6.6 0 0 1-1.2 0V2.049L1.024 6.524a.6.6 0 1 1-.848-.848L4.65 1.2H.7A.6.6 0 1 1 .7 0Z" />
    </symbol>
    <symbol viewBox="0 0 17 13" id="check" xmlns="http://www.w3.org/2000/svg">
        <path d="m2 5 5 5 8-8" />
    </symbol>
    <symbol viewBox="0 0 40 40" id="check-square" xmlns="http://www.w3.org/2000/svg">
        <path fill-rule="evenodd" clip-rule="evenodd" d="M27.78 15.387c.476.5.457 1.29-.042 1.767l-9.172 8.75a1.25 1.25 0 0 1-1.726 0l-4.579-4.375a1.25 1.25 0 1 1 1.728-1.808l3.715 3.55 8.308-7.925a1.25 1.25 0 0 1 1.767.041Z" />
        <path fill-rule="evenodd" clip-rule="evenodd" d="M5 7.5A2.5 2.5 0 0 1 7.5 5h25A2.5 2.5 0 0 1 35 7.5v25a2.5 2.5 0 0 1-2.5 2.5h-25A2.5 2.5 0 0 1 5 32.5v-25Zm27.5 0h-25v25h25v-25Z" />
    </symbol>
    <symbol viewBox="0 0 24 24" id="close" xmlns="http://www.w3.org/2000/svg">
        <g fill-rule="evenodd" clip-rule="evenodd">
            <path d="M19.546 4.455c.439.439.439 1.151 0 1.59l-13.5 13.5a1.125 1.125 0 0 1-1.591-1.59l13.5-13.5c.439-.44 1.151-.44 1.59 0Z" />
            <path d="M4.455 4.455c.439-.44 1.151-.44 1.59 0l13.5 13.5a1.125 1.125 0 0 1-1.59 1.59l-13.5-13.5a1.125 1.125 0 0 1 0-1.59Z" />
        </g>
    </symbol>
    <symbol viewBox="0 0 40 40" id="file" xmlns="http://www.w3.org/2000/svg">
        <path fill-rule="evenodd" clip-rule="evenodd" d="M6.982 4.482A2.5 2.5 0 0 1 8.75 3.75h15c.331 0 .65.132.884.366l8.75 8.75c.234.235.366.553.366.884v20a2.5 2.5 0 0 1-2.5 2.5H8.75a2.5 2.5 0 0 1-2.5-2.5V6.25a2.5 2.5 0 0 1 .732-1.768Zm16.25 1.768H8.75v27.5h22.5V14.268L23.232 6.25Z" />
        <path fill-rule="evenodd" clip-rule="evenodd" d="M23.75 3.75c.69 0 1.25.56 1.25 1.25v7.5h7.5a1.25 1.25 0 1 1 0 2.5h-8.75c-.69 0-1.25-.56-1.25-1.25V5c0-.69.56-1.25 1.25-1.25ZM13.75 21.25c0-.69.56-1.25 1.25-1.25h10a1.25 1.25 0 1 1 0 2.5H15c-.69 0-1.25-.56-1.25-1.25ZM13.75 26.25c0-.69.56-1.25 1.25-1.25h10a1.25 1.25 0 1 1 0 2.5H15c-.69 0-1.25-.56-1.25-1.25Z" />
    </symbol>
    <symbol viewBox="0 0 40 40" id="film" xmlns="http://www.w3.org/2000/svg">
        <path fill-rule="evenodd" clip-rule="evenodd" d="M5 17.5c0-.69.56-1.25 1.25-1.25h27.5c.69 0 1.25.56 1.25 1.25v13.75a2.5 2.5 0 0 1-2.5 2.5h-25a2.5 2.5 0 0 1-2.5-2.5V17.5Zm2.5 1.25v12.5h25v-12.5h-25Z" />
        <path fill-rule="evenodd" clip-rule="evenodd" d="M29.654 3.466a2.484 2.484 0 0 1 3.071 1.764l1.295 4.82a1.25 1.25 0 0 1-.883 1.532L6.574 18.707a1.25 1.25 0 0 1-1.531-.883l-1.297-4.83a2.5 2.5 0 0 1 1.777-3.062h.004l24.127-6.466Zm.657 2.413h-.003l-24.14 6.469-.007.002.972 3.619 24.148-6.477-.97-3.613Z" />
        <path fill-rule="evenodd" clip-rule="evenodd" d="M19.246 6.625a1.25 1.25 0 0 1 1.707-.457l7.657 4.421a1.25 1.25 0 1 1-1.25 2.165l-7.657-4.422a1.25 1.25 0 0 1-.457-1.707ZM8.387 9.546a1.25 1.25 0 0 1 1.708-.456l7.64 4.422a1.25 1.25 0 0 1-1.252 2.164l-7.64-4.422a1.25 1.25 0 0 1-.456-1.708Z" />
    </symbol>
    <symbol viewBox="0 0 40 40" id="lamp" xmlns="http://www.w3.org/2000/svg">
        <path fill-rule="evenodd" clip-rule="evenodd" d="M12.5 36.25c0-.69.56-1.25 1.25-1.25h12.5a1.25 1.25 0 1 1 0 2.5h-12.5c-.69 0-1.25-.56-1.25-1.25ZM20 21.25c.69 0 1.25.56 1.25 1.25v8.75a1.25 1.25 0 1 1-2.5 0V22.5c0-.69.56-1.25 1.25-1.25Z" />
        <path fill-rule="evenodd" clip-rule="evenodd" d="M14.116 16.616a1.25 1.25 0 0 1 1.768 0L20 20.732l4.116-4.116a1.25 1.25 0 0 1 1.768 1.768l-5 5a1.25 1.25 0 0 1-1.768 0l-5-5a1.25 1.25 0 0 1 0-1.768Z" />
        <path fill-rule="evenodd" clip-rule="evenodd" d="M26.363 6.97A11.25 11.25 0 0 0 19.733 5c-6.097.14-11.011 5.218-10.983 11.322v.002a11.172 11.172 0 0 0 4.314 8.783l-.767.987.773-.982A5.062 5.062 0 0 1 15 29.054V30h10v-.94a5.032 5.032 0 0 1 1.95-3.968 11.25 11.25 0 0 0-.587-18.123ZM11.526 27.077A13.672 13.672 0 0 1 6.25 16.333C6.216 8.875 12.207 2.673 19.674 2.5m-8.148 24.578a2.563 2.563 0 0 1 .974 1.99V30a2.5 2.5 0 0 0 2.5 2.5h10a2.5 2.5 0 0 0 2.5-2.5v-.935a2.532 2.532 0 0 1 .983-1.998l.008-.006a13.75 13.75 0 0 0-8.817-24.56" />
    </symbol>
    <symbol viewBox="0 0 22 22" id="pdf" xmlns="http://www.w3.org/2000/svg">
        <path d="M.44 21.556c-1.211-1.25.1-2.967 3.656-4.79l2.238-1.148.871-1.968a78.837 78.837 0 0 0 1.59-3.924l.72-1.957-.496-1.448c-.609-1.78-.826-4.456-.44-5.418.524-1.303 2.237-1.17 2.916.228.53 1.09.476 3.066-.153 5.558l-.515 2.043.454.794c.25.437.978 1.475 1.62 2.306l1.204 1.546 1.5-.202c4.763-.641 6.395.449 6.395 2.012 0 1.972-3.74 2.135-6.882-.141-.706-.512-1.191-1.021-1.191-1.021s-1.968.413-2.937.683c-1 .278-1.5.452-2.964.962 0 0-.514.77-.849 1.33-1.246 2.083-2.7 3.809-3.74 4.437-1.163.703-2.383.751-2.997.118Zm1.901-.7c.68-.435 2.059-2.117 3.013-3.677l.386-.632-1.758.912C1.265 18.868.022 20.196.669 21c.363.451.797.414 1.672-.144Zm17.643-5.11c.666-.481.569-1.451-.184-1.842-.586-.304-1.058-.367-2.58-.344-.936.066-2.44.26-2.694.32 0 0 .826.589 1.193.805.488.288 1.675.822 2.541 1.096.855.27 1.349.242 1.724-.035Zm-7.094-3.042c-.403-.437-1.089-1.35-1.523-2.027-.569-.77-.854-1.312-.854-1.312s-.415 1.379-.756 2.208l-1.063 2.712-.308.615s1.639-.555 2.473-.78c.883-.237 2.675-.6 2.675-.6l-.644-.816Zm-2.286-9.458c.103-.89.146-1.779-.131-2.227-.769-.867-1.697-.144-1.54 1.917.053.694.22 1.88.444 2.61l.405 1.328.286-1c.157-.55.398-1.733.536-2.628Z" />
    </symbol>
    <symbol viewBox="0 0 24 24" id="phone" xmlns="http://www.w3.org/2000/svg">
        <path fill-rule="evenodd" clip-rule="evenodd" d="M5 5a1 1 0 0 0-1 .974A15 15 0 0 0 18.026 20 1 1 0 0 0 19 19v-3.323l-3.58-1.432-1.063 1.77a1 1 0 0 1-1.3.382 12 12 0 0 1-5.454-5.455 1 1 0 0 1 .383-1.3l1.77-1.061L8.322 5H5ZM2.879 3.879A3 3 0 0 1 5 3h4a1 1 0 0 1 .928.629l2 5a1 1 0 0 1-.414 1.228l-1.673 1.005a10.001 10.001 0 0 0 3.297 3.297l1.005-1.674a1 1 0 0 1 1.228-.413l5 2A1 1 0 0 1 21 15v4a3 3 0 0 1-3.06 2.998A17 17 0 0 1 2 6a3 3 0 0 1 .879-2.121Z" />
    </symbol>
    <symbol viewBox="0 0 33 37" id="play" xmlns="http://www.w3.org/2000/svg">
        <path d="M30.685 15 5.939 1.29C3.273-.187 0 1.741 0 4.79V32.21c0 3.048 3.273 4.976 5.939 3.498L30.685 22c2.749-1.523 2.749-5.475 0-6.998Z" />
    </symbol>
    <symbol viewBox="0 0 16 16" id="question" xmlns="http://www.w3.org/2000/svg">
        <path fill-rule="evenodd" clip-rule="evenodd" d="M7.665 4.333c-.399 0-.756.138-.999.346-.237.203-.334.443-.334.654a1 1 0 1 1-2 0c0-.85.395-1.627 1.033-2.173.632-.542 1.462-.827 2.3-.827h.667c.839 0 1.668.285 2.3.827.631.54 1.024 1.306 1.033 2.145a3 3 0 0 1-1.94 2.95c-.161.085-.35.262-.5.562-.158.318-.245.72-.227 1.14A1 1 0 0 1 7 10.044a4.359 4.359 0 0 1 .437-2.12c.321-.643.82-1.19 1.47-1.495A1 1 0 0 1 9 6.39a1 1 0 0 0 .667-1 1 1 0 0 1-.002-.056c0-.212-.096-.452-.334-.655a1.546 1.546 0 0 0-.999-.346h-.667ZM8 11.666a1 1 0 0 1 1 1v.008a1 1 0 1 1-2 0v-.008a1 1 0 0 1 1-1Z" />
    </symbol>
    <symbol viewBox="0 0 24 24" id="search" xmlns="http://www.w3.org/2000/svg">
        <path fill-rule="evenodd" clip-rule="evenodd" d="M10.875 4.125a6.75 6.75 0 1 0 0 13.5 6.75 6.75 0 0 0 0-13.5Zm-9 6.75a9 9 0 1 1 18 0 9 9 0 0 1-18 0Z" />
        <path fill-rule="evenodd" clip-rule="evenodd" d="M15.648 15.648c.44-.439 1.152-.439 1.591 0l4.556 4.557a1.125 1.125 0 0 1-1.59 1.59l-4.557-4.556a1.125 1.125 0 0 1 0-1.59Z" />
    </symbol>
    <symbol viewBox="0 0 40 40" id="swap" xmlns="http://www.w3.org/2000/svg">
        <path fill-rule="evenodd" clip-rule="evenodd" d="M13.232 5.732A2.5 2.5 0 0 1 15 5h17.5A2.5 2.5 0 0 1 35 7.5v16.25a2.5 2.5 0 0 1-2.5 2.5h-20a1.25 1.25 0 1 1 0-2.5h20V7.5H15v1.25a1.25 1.25 0 1 1-2.5 0V7.5a2.5 2.5 0 0 1 .732-1.768Z" />
        <path fill-rule="evenodd" clip-rule="evenodd" d="M17.134 20.366a1.25 1.25 0 0 1 0 1.768L14.268 25l2.866 2.866a1.25 1.25 0 0 1-1.768 1.768l-3.75-3.75a1.25 1.25 0 0 1 0-1.768l3.75-3.75a1.25 1.25 0 0 1 1.768 0Z" />
        <path fill-rule="evenodd" clip-rule="evenodd" d="M5.732 14.482A2.5 2.5 0 0 1 7.5 13.75h20a1.25 1.25 0 1 1 0 2.5h-20V32.5H25v-1.25a1.25 1.25 0 1 1 2.5 0v1.25A2.5 2.5 0 0 1 25 35H7.5A2.5 2.5 0 0 1 5 32.5V16.25a2.5 2.5 0 0 1 .732-1.768Z" />
        <path fill-rule="evenodd" clip-rule="evenodd" d="M22.866 10.366a1.25 1.25 0 0 1 1.768 0l3.75 3.75a1.25 1.25 0 0 1 0 1.768l-3.75 3.75a1.25 1.25 0 0 1-1.768-1.768L25.732 15l-2.866-2.866a1.25 1.25 0 0 1 0-1.768Z" />
    </symbol>
    <symbol viewBox="0 0 24 24" id="telegram" xmlns="http://www.w3.org/2000/svg">
        <path d="m15 10-4 4 6 6 4-16-18 7 4 2 2 6 3-4" />
    </symbol>
    <symbol viewBox="0 0 21 17" id="tg" xmlns="http://www.w3.org/2000/svg">
        <path d="m8.24 11.204-.347 4.746c.497 0 .712-.207.97-.456l2.33-2.163 4.829 3.435c.885.48 1.51.227 1.748-.792l3.17-14.426c.281-1.272-.473-1.77-1.336-1.458L.974 7.02c-1.27.48-1.251 1.168-.215 1.48l4.763 1.439 11.062-6.725c.521-.335.994-.15.605.186L8.24 11.204Z" />
    </symbol>
    <symbol viewBox="0 0 23 14" id="vk" xmlns="http://www.w3.org/2000/svg">
        <path fill-rule="evenodd" clip-rule="evenodd" d="M21.97.938c.167-.53 0-.914-.738-.914h-2.455c-.619 0-.905.337-1.072.697 0 0-1.263 3.075-3.026 5.069-.572.576-.834.768-1.144.768-.167 0-.381-.192-.381-.72V.913c0-.625-.19-.913-.715-.913h-3.86c-.382 0-.62.288-.62.577 0 .6.881.744.976 2.426v3.653c0 .793-.14.938-.453.938-.833 0-2.859-3.1-4.074-6.63C4.172.264 3.932 0 3.312 0H.834C.119 0 0 .336 0 .697c0 .648.834 3.915 3.884 8.239 2.026 2.953 4.909 4.54 7.506 4.54 1.573 0 1.764-.36 1.764-.96V10.28c0-.72.143-.84.643-.84.357 0 1.001.191 2.455 1.609 1.667 1.681 1.953 2.45 2.883 2.45h2.454c.715 0 1.049-.36.858-1.057-.214-.697-1.025-1.705-2.073-2.906-.572-.672-1.43-1.417-1.692-1.778-.357-.48-.262-.672 0-1.105-.024 0 2.979-4.276 3.288-5.718" />
    </symbol>
    <symbol viewBox="0 0 24 24" id="whatsapp" xmlns="http://www.w3.org/2000/svg">
        <path d="m3 21 1.65-3.8a9 9 0 1 1 3.4 2.9L3 21Z" />
        <path d="M9 10a.5.5 0 0 0 1 0V9a.5.5 0 1 0-1 0v1Zm0 0a5 5 0 0 0 5 5m0 0h1a.5.5 0 0 0 0-1h-1a.5.5 0 0 0 0 1Z" />
    </symbol>
</svg>