<svg width="100" height="111" viewBox="0 0 100 111" fill="none" xmlns="http://www.w3.org/2000/svg">
<rect width="100" height="100" rx="12" fill="#FF4400"/>
<path d="M69.2884 39.3637L70.1755 37.9694C70.9085 36.6994 72.2734 35.9096 73.7347 35.9096C75.3627 35.9096 76.5104 36.6187 76.5183 36.6226L77.2197 37.076L80.2047 32.2902L67.7244 24.2243L66.8097 25.685L68.2442 26.6109C67.395 27.7749 65.711 30.0658 64.5033 31.5883C64.1573 31.3295 63.8224 31.0533 63.4993 30.7605C61.0909 28.5662 59.5901 25.579 59.271 22.3536C59.2189 21.8155 59.3303 21.3652 59.5854 21.0843C59.8034 20.8438 60.136 20.7227 60.5712 20.7227C61.9053 20.7227 62.6478 22.1012 63.0119 23.1006H61.1091C61.2181 23.6885 61.3713 24.2646 61.5641 24.8233H65.181L64.9977 23.8088C64.9906 23.7613 64.7829 22.6401 64.1881 21.5085C63.324 19.8673 62.0728 19 60.5728 19C59.6446 19 58.8658 19.3213 58.3168 19.925C57.7299 20.5692 57.4614 21.4895 57.5593 22.519C57.5941 22.868 57.6415 23.2153 57.7015 23.5611C55.8026 24.0272 51.0183 25.6312 47.8405 30.4282C47.335 31.191 46.4598 32.6059 45.9408 33.4518C44.5728 32.7839 43.023 32.3163 40.9472 32.3163C39.7852 32.3163 38.6968 32.5394 37.722 32.9224C36.5664 32.5275 35.3437 32.3163 34.1273 32.3163C32.711 32.3163 31.4053 32.6834 30.1454 33.0411C28.8998 33.394 27.7236 33.7248 26.4535 33.7248C22.9645 33.7248 20.4535 32.0662 20.0159 31.6888C19.9566 32.4081 20.0822 33.2967 20.0822 33.2967C20.4732 36.0988 23.0838 38.9981 26.775 38.9981C28.6186 38.9981 31.0111 38.1119 33.3326 37.0349C33.087 37.6426 32.9543 38.2646 32.9543 38.8707C32.9543 39.4943 33.0348 40.011 33.1099 40.5111C33.1897 41.0437 33.2694 41.5462 33.2694 42.2243C33.2694 45.2622 30.2939 46.7981 29.0143 47.3196L27.8998 47.7723L33.448 54.189L32.2647 55.2185L35.6533 59.1181L38.1225 56.961C38.816 56.3564 39.2347 55.5161 39.2979 54.5966C39.3611 53.6731 39.0625 52.7852 38.4598 52.092L36.4195 49.7205C37.4582 49.3129 38.8658 48.6514 40.1936 47.6773C41.4661 46.7443 42.4377 45.6784 43.0965 44.516C44.2394 45.2068 47.2734 47.0632 47.4164 47.1534C49.1905 48.2755 52.3192 50.2491 56.0025 50.6938L56.1375 50.6954L48.2623 63.2939H22.771L21.7189 65.0166H49.1976L59.1794 49.0621H57.4906C53.6628 49.0621 50.1936 46.8725 48.3311 45.6958C48.1865 45.6048 44.8674 43.5751 43.7773 42.9159C43.9851 42.218 44.0909 41.4932 44.0909 40.7485C44.0909 38.4426 42.9709 36.2808 40.9337 34.6649C40.6731 34.4584 40.4021 34.2645 40.1209 34.0825C40.3879 34.0532 40.6644 34.0374 40.9464 34.0374C43.8666 34.0374 45.489 35.0732 47.542 36.3836C47.745 36.5134 53.5522 40.1922 53.7228 40.2904C55.6778 41.4045 58.6352 43.0885 61.948 43.0885V43.0845C63.1344 43.0734 64.2939 42.8313 65.3706 42.3889L51.2213 65.0166H77.418L78.4875 63.2939C78.4875 63.2939 60.3871 63.2939 54.3216 63.3026L69.2884 39.3637ZM26.7742 37.2762C24.6723 37.2762 23.2062 36.094 22.4227 34.786C23.4448 35.1326 24.8231 35.4483 26.4527 35.4483C27.9622 35.4483 29.3074 35.0669 30.6115 34.6989C31.8129 34.3594 32.9487 34.0374 34.1265 34.0374C34.5317 34.0374 34.9361 34.0659 35.3397 34.1205C32.5427 35.567 28.9819 37.2762 26.7742 37.2762ZM42.3737 40.7485C42.3737 45.8842 35.9756 48.1109 34.6912 48.5066L33.4329 48.8928L37.1596 53.2205C37.4653 53.5694 37.613 54.0142 37.5807 54.4763C37.5514 54.9368 37.3413 55.3594 36.993 55.6617L35.82 56.6864L34.6912 55.3879L35.8705 54.3568L30.7299 48.4132C31.3705 48.0714 32.1209 47.5918 32.8074 46.9548C34.2347 45.6373 34.9874 44.0008 34.9874 42.2243C34.9874 41.4164 34.8935 40.796 34.8097 40.2508C34.7363 39.7744 34.6731 39.3629 34.6731 38.8707C34.6731 37.6466 35.6194 36.0766 37.2536 35.0637C37.523 34.8975 37.7805 34.7868 37.7805 34.7868C38.5341 35.1041 39.2386 35.5171 39.8658 36.0141C41.4835 37.2984 42.3737 38.9791 42.3737 40.7485ZM69.692 27.5454L77.8595 32.8235L76.6383 34.7678C75.9827 34.494 74.9804 34.1869 73.7347 34.1869H72.3413C70.0807 34.1869 67.8903 33.6093 65.9527 32.5291C67.2126 30.9346 68.8824 28.6596 69.692 27.5454ZM47.4448 34.289C47.4448 34.289 48.7987 32.0939 49.271 31.3817C52.087 27.1316 56.433 25.6653 58.0909 25.2435C58.854 27.8343 60.3137 30.1821 62.3421 32.0346C63.7813 33.3474 65.4424 34.3484 67.2331 35.006C63.3579 34.7804 60.2371 32.8805 58.5364 30.5904L57.7892 29.5839L53.666 36.1296L54.3232 36.6044C55.3153 37.319 56.4266 37.6766 57.6099 37.6766C58.4756 37.6766 59.3769 37.4867 60.305 37.1029C61.3524 36.6701 62.1889 36.0877 62.6462 35.7324C64.4922 36.4723 66.6217 36.8608 68.9314 36.7223C68.8492 36.8426 68.7726 36.9645 68.6984 37.0927L67.9219 38.3089C66.5119 40.2263 64.2465 41.3626 61.8729 41.3626V41.3642C59.0435 41.3381 56.463 39.8694 54.5712 38.7924C54.4069 38.6974 47.4448 34.289 47.4448 34.289ZM60.8745 34.873C59.7513 35.5789 57.8429 36.4311 56.0262 35.6113L57.9448 32.5639C58.7537 33.4265 59.7402 34.2178 60.8745 34.873Z" fill="white"/>
<path d="M43.4691 52.816L42.6421 54.1446L47.026 56.8842L47.9383 55.421L48.7637 54.0932C49.7685 52.4773 49.2748 50.3447 47.6634 49.3342L43.5915 46.8115C43.5892 46.8139 43.5868 46.8163 43.586 46.8163C43.2266 47.2586 42.8238 47.682 42.383 48.0879L46.7535 50.7974C47.5607 51.3022 47.8088 52.3713 47.304 53.1808L46.4778 54.511L45.0102 53.5947L45.8388 52.2645L40.9659 49.2258C40.417 49.612 39.8633 49.9507 39.3301 50.2427L43.4691 52.816Z" fill="white"/>
<path d="M69.2884 39.3637L70.1755 37.9694C70.9085 36.6994 72.2734 35.9096 73.7347 35.9096C75.3627 35.9096 76.5104 36.6187 76.5183 36.6226L77.2197 37.076L80.2047 32.2902L67.7244 24.2243L66.8097 25.685L68.2442 26.6109C67.395 27.7749 65.711 30.0658 64.5033 31.5883C64.1573 31.3295 63.8224 31.0533 63.4993 30.7605C61.0909 28.5662 59.5901 25.579 59.271 22.3536C59.2189 21.8155 59.3303 21.3652 59.5854 21.0843C59.8034 20.8438 60.136 20.7227 60.5712 20.7227C61.9053 20.7227 62.6478 22.1012 63.0119 23.1006H61.1091C61.2181 23.6885 61.3713 24.2646 61.5641 24.8233H65.181L64.9977 23.8088C64.9906 23.7613 64.7829 22.6401 64.1881 21.5085C63.324 19.8673 62.0728 19 60.5728 19C59.6446 19 58.8658 19.3213 58.3168 19.925C57.7299 20.5692 57.4614 21.4895 57.5593 22.519C57.5941 22.868 57.6415 23.2153 57.7015 23.5611C55.8026 24.0272 51.0183 25.6312 47.8405 30.4282C47.335 31.191 46.4598 32.6059 45.9408 33.4518C44.5728 32.7839 43.023 32.3163 40.9472 32.3163C39.7852 32.3163 38.6968 32.5394 37.722 32.9224C36.5664 32.5275 35.3437 32.3163 34.1273 32.3163C32.711 32.3163 31.4053 32.6834 30.1454 33.0411C28.8998 33.394 27.7236 33.7248 26.4535 33.7248C22.9645 33.7248 20.4535 32.0662 20.0159 31.6888C19.9566 32.4081 20.0822 33.2967 20.0822 33.2967C20.4732 36.0988 23.0838 38.9981 26.775 38.9981C28.6186 38.9981 31.0111 38.1119 33.3326 37.0349C33.087 37.6426 32.9543 38.2646 32.9543 38.8707C32.9543 39.4943 33.0348 40.011 33.1099 40.5111C33.1897 41.0437 33.2694 41.5462 33.2694 42.2243C33.2694 45.2622 30.2939 46.7981 29.0143 47.3196L27.8998 47.7723L33.448 54.189L32.2647 55.2185L35.6533 59.1181L38.1225 56.961C38.816 56.3564 39.2347 55.5161 39.2979 54.5966C39.3611 53.6731 39.0625 52.7852 38.4598 52.092L36.4195 49.7205C37.4582 49.3129 38.8658 48.6514 40.1936 47.6773C41.4661 46.7443 42.4377 45.6784 43.0965 44.516C44.2394 45.2068 47.2734 47.0632 47.4164 47.1534C49.1905 48.2755 52.4851 50.3551 56.1375 50.6954C55.9132 51.0538 48.2623 63.2939 48.2623 63.2939H22.771L21.7189 65.0166H49.1976L59.1794 49.0621H57.4906C53.6628 49.0621 50.1936 46.8725 48.3311 45.6958C48.1865 45.6048 44.8674 43.5751 43.7773 42.9159C43.9851 42.218 44.0909 41.4932 44.0909 40.7485C44.0909 38.4426 42.9709 36.2808 40.9337 34.6649C40.6731 34.4584 40.4021 34.2645 40.1209 34.0825C40.3879 34.0532 40.6644 34.0374 40.9464 34.0374C43.8666 34.0374 45.489 35.0732 47.542 36.3836C47.745 36.5134 53.5522 40.1922 53.7228 40.2904C55.6778 41.4045 58.6352 43.0885 61.948 43.0885V43.0845C63.1344 43.0734 64.2939 42.8313 65.3706 42.3889L51.2213 65.0166H77.418L78.4875 63.2939C78.4875 63.2939 60.3871 63.2939 54.3216 63.3026L69.2884 39.3637ZM26.7742 37.2762C24.6723 37.2762 23.2062 36.094 22.4227 34.786C23.4448 35.1326 24.8231 35.4483 26.4527 35.4483C27.9622 35.4483 29.3074 35.0669 30.6115 34.6989C31.8129 34.3594 32.9487 34.0374 34.1265 34.0374C34.5317 34.0374 34.9361 34.0659 35.3397 34.1205C32.5427 35.567 28.9819 37.2762 26.7742 37.2762ZM42.3737 40.7485C42.3737 45.8842 35.9756 48.1109 34.6912 48.5066L33.4329 48.8928L37.1596 53.2205C37.4653 53.5694 37.613 54.0142 37.5807 54.4763C37.5514 54.9368 37.3413 55.3594 36.993 55.6617L35.82 56.6864L34.6912 55.3879L35.8705 54.3568L30.7299 48.4132C31.3705 48.0714 32.1209 47.5918 32.8074 46.9548C34.2347 45.6373 34.9874 44.0008 34.9874 42.2243C34.9874 41.4164 34.8935 40.796 34.8097 40.2508C34.7363 39.7744 34.6731 39.3629 34.6731 38.8707C34.6731 37.6466 35.6194 36.0766 37.2536 35.0637C37.523 34.8975 37.7805 34.7868 37.7805 34.7868C38.5341 35.1041 39.2386 35.5171 39.8658 36.0141C41.4835 37.2984 42.3737 38.9791 42.3737 40.7485ZM69.692 27.5454L77.8595 32.8235L76.6383 34.7678C75.9827 34.494 74.9804 34.1869 73.7347 34.1869H72.3413C70.0807 34.1869 67.8903 33.6093 65.9527 32.5291C67.2126 30.9346 68.8824 28.6596 69.692 27.5454ZM47.4448 34.289C47.4448 34.289 48.7987 32.0939 49.271 31.3817C52.087 27.1316 56.433 25.6653 58.0909 25.2435C58.854 27.8343 60.3137 30.1821 62.3421 32.0346C63.7813 33.3474 65.4424 34.3484 67.2331 35.006C63.3579 34.7804 60.2371 32.8805 58.5364 30.5904L57.7892 29.5839L53.666 36.1296L54.3232 36.6044C55.3153 37.319 56.4266 37.6766 57.6099 37.6766C58.4756 37.6766 59.3769 37.4867 60.305 37.1029C61.3524 36.6701 62.1889 36.0877 62.6462 35.7324C64.4922 36.4723 66.6217 36.8608 68.9314 36.7223C68.8492 36.8426 68.7726 36.9645 68.6984 37.0927L67.9219 38.3089C66.5119 40.2263 64.2465 41.3626 61.8729 41.3626V41.3642C59.0435 41.3381 56.463 39.8694 54.5712 38.7924C54.4069 38.6974 47.4448 34.289 47.4448 34.289ZM60.8745 34.873C59.7513 35.5789 57.8429 36.4311 56.0262 35.6113L57.9448 32.5639C58.7537 33.4265 59.7402 34.2178 60.8745 34.873Z" fill="white"/>
<path d="M60.3809 56.8446H67.1107L65.3706 48.9141L64.0657 50.9881L64.9733 55.1204H61.463L60.3809 56.8446Z" fill="white"/>
<path d="M25.4154 71.3265C26.838 71.3265 27.2646 72.5016 27.2646 73.8025C27.2646 74.8542 26.7322 76.2793 25.4154 76.2793C24.1232 76.2793 23.6208 75.1058 23.6208 73.8025C23.6208 72.5024 23.9921 71.3265 25.4154 71.3265ZM25.2717 77.9403C26.5039 77.9403 27.3886 77.0564 27.3886 77.0564L27.8246 77.7615H29.1674V66.7329H27.2646V70.2756C26.7503 69.9061 26.1382 69.6679 25.4154 69.6679C22.9644 69.6679 21.7188 71.4824 21.7188 73.8033C21.7188 76.1242 23.0197 77.9403 25.2717 77.9403Z" fill="white"/>
<path d="M74.7906 76.2606C73.3688 76.2606 72.9439 75.0847 72.9439 73.7846C72.9439 72.7329 73.4723 71.3085 74.7906 71.3085C76.0821 71.3085 76.5845 72.4829 76.5845 73.7846C76.5845 75.0847 76.2156 76.2606 74.7906 76.2606ZM74.9352 69.646C73.7037 69.646 72.8167 70.5283 72.8167 70.5283L72.3807 69.8248H71.041V80.8534H72.9439V77.3083C73.4573 77.6794 74.0694 77.9184 74.7906 77.9184C77.244 77.9184 78.4873 76.1039 78.4873 73.7838C78.4873 71.4613 77.1856 69.646 74.9352 69.646Z" fill="white"/>
<path d="M67.5298 74.5981C67.5298 75.319 67.0558 76.2607 65.8347 76.2607C64.6727 76.2607 64.3252 75.251 64.3252 74.4232V69.8257H62.416V74.6219C62.416 76.9428 64.059 77.9193 65.6775 77.9193C66.935 77.9193 67.6577 77.0741 67.6577 77.0741L68.089 77.7673H69.4381V69.8257H67.5298V74.5981Z" fill="white"/>
<path d="M50.0251 70.7142L49.4682 69.8256H48.123V77.7664H50.0251V72.0872L52.6673 71.3212L51.7044 69.7876C51.3979 69.862 50.6357 70.1738 50.0251 70.7142Z" fill="white"/>
<path d="M57.0973 69.5747C54.7679 69.5747 52.8809 71.462 52.8809 73.794C52.8809 76.1292 54.7679 78.0173 57.0973 78.0173C59.4235 78.0173 61.309 76.1292 61.309 73.794C61.309 71.4612 59.4235 69.5747 57.0973 69.5747ZM57.0973 76.3539C55.7071 76.3539 54.7956 75.2026 54.7956 73.794C54.7956 72.3926 55.6534 71.2373 57.0973 71.2373C58.5365 71.2373 59.399 72.296 59.399 73.794C59.399 75.2959 58.4859 76.3539 57.0973 76.3539Z" fill="white"/>
<path d="M33.783 76.2867C33.0365 76.2867 32.6819 75.9321 32.6819 74.8694V71.4533H35.155V71.4367V69.8406V69.8248H32.6819V66.7339H30.7695V74.8385C30.7695 76.7836 31.5428 77.9365 33.4686 77.9365C34.4812 77.9365 35.8564 77.3826 35.8564 77.3826L34.9741 75.9804C34.9741 75.9804 34.2103 76.2867 33.783 76.2867Z" fill="white"/>
<path d="M45.1698 69.8192L44.7409 70.5052C44.7409 70.5052 43.9779 69.6411 42.7686 69.6411C40.3175 69.6411 39.0703 71.2404 39.0703 73.5597C39.0703 75.8846 40.3175 77.4846 42.7686 77.4846C43.6675 77.4846 44.3104 77.127 44.6161 76.7242V77.4221C44.6161 78.363 44.248 79.3569 42.7986 79.3569C42.1035 79.3569 41.3973 79.1132 40.8515 78.8623L39.9487 80.3073C40.6691 80.6491 41.707 81.0234 42.7986 81.0234C44.7441 81.0234 46.5206 79.7209 46.5206 77.4213V69.8184H45.1698V69.8192ZM42.7686 75.8229C41.5474 75.8229 40.9771 74.7736 40.9771 73.5605C40.9771 72.3506 41.5032 71.3021 42.7686 71.3021C44.0308 71.3021 44.6161 72.3419 44.6161 73.5605C44.6161 74.7839 43.9874 75.8229 42.7686 75.8229Z" fill="white"/>
<path d="M50.5 110.5L28 88H73L50.5 110.5Z" fill="#FF4400"/>
</svg>
