<svg width="71" height="73" viewBox="0 0 71 73" fill="none" xmlns="http://www.w3.org/2000/svg">
<g clip-path="url(#clip0_231_1524)">
<path d="M58.2948 24.0844L59.3439 22.4353C60.2108 20.9332 61.8252 19.9992 63.5535 19.9992C65.4789 19.9992 66.8363 20.8378 66.8456 20.8424L67.6752 21.3787L71.2056 15.7184L56.445 6.1788L55.3632 7.90646L57.0598 9.00146C56.0555 10.3782 54.0637 13.0876 52.6353 14.8883C52.2262 14.5822 51.83 14.2556 51.448 13.9093C48.5995 11.3141 46.8245 7.78105 46.4471 3.96633C46.3855 3.32992 46.5172 2.7974 46.8189 2.46515C47.0768 2.18064 47.4701 2.03745 47.9848 2.03745C49.5627 2.03745 50.4409 3.66778 50.8715 4.84982H48.621C48.75 5.54519 48.9312 6.22653 49.1591 6.88727H53.4369L53.2201 5.68745C53.2117 5.6313 52.966 4.30513 52.2626 2.96679C51.2406 1.02574 49.7608 0 47.9867 0C46.889 0 45.9679 0.379974 45.3186 1.09406C44.6245 1.85588 44.3068 2.94433 44.4227 4.16194C44.4638 4.57467 44.5198 4.98553 44.5908 5.39451C42.345 5.94576 36.6865 7.84282 32.9282 13.5162C32.3303 14.4184 31.2952 16.0918 30.6814 17.0923C29.0633 16.3024 27.2304 15.7493 24.7753 15.7493C23.4011 15.7493 22.1137 16.0132 20.9609 16.4662C19.5942 15.9992 18.148 15.7493 16.7093 15.7493C15.0343 15.7493 13.49 16.1835 12 16.6066C10.5267 17.024 9.13569 17.4152 7.63348 17.4152C3.50707 17.4152 0.537219 15.4535 0.0196661 15.0071C-0.0503997 15.8578 0.0981398 16.9089 0.0981398 16.9089C0.560574 20.2229 3.64814 23.652 8.01371 23.652C10.1942 23.652 13.0239 22.6038 15.7695 21.33C15.479 22.0488 15.322 22.7844 15.322 23.5013C15.322 24.2388 15.4173 24.8499 15.5061 25.4414C15.6004 26.0713 15.6948 26.6656 15.6948 27.4677C15.6948 31.0606 12.1756 32.8771 10.6622 33.4939L9.34402 34.0292L15.9059 41.6184L14.5065 42.836L18.5142 47.4481L21.4346 44.8969C22.2548 44.1818 22.7499 43.1879 22.8247 42.1004C22.8994 41.0082 22.5463 39.9581 21.8335 39.1383L19.4204 36.3334C20.6489 35.8514 22.3137 35.069 23.8841 33.9169C25.3891 32.8135 26.5382 31.5528 27.3173 30.178C28.6691 30.9951 32.2574 33.1907 32.4265 33.2974C34.5247 34.6245 38.2251 36.9586 42.5814 37.4846L42.7411 37.4864L33.427 52.3869H3.27819L2.03382 54.4243H34.5331L46.3388 35.5547H44.3414C39.8142 35.5547 35.7112 32.9651 33.5083 31.5734C33.3373 31.4658 29.4118 29.0652 28.1226 28.2856C28.3683 27.4602 28.4935 26.6029 28.4935 25.7222C28.4935 22.995 27.1688 20.4381 24.7594 18.527C24.4511 18.2828 24.1307 18.0535 23.7981 17.8382C24.1139 17.8036 24.4409 17.7849 24.7744 17.7849C28.2282 17.7849 30.147 19.01 32.575 20.5598C32.8151 20.7133 39.6834 25.0643 39.8852 25.1803C42.1974 26.4981 45.6951 28.4897 49.6132 28.4897V28.485C51.0163 28.4719 52.3878 28.1855 53.6611 27.6623L36.9266 54.4243H67.9097L69.1746 52.3869C69.1746 52.3869 47.7672 52.3869 40.5934 52.3972L58.2948 24.0844ZM8.01277 21.6155C5.52684 21.6155 3.79294 20.2173 2.86621 18.6702C4.07507 19.0801 5.70527 19.4536 7.63255 19.4536C9.41782 19.4536 11.0088 19.0025 12.5512 18.5673C13.9721 18.1658 15.3155 17.7849 16.7084 17.7849C17.1877 17.7849 17.666 17.8186 18.1433 17.8831C14.8353 19.5939 10.6239 21.6155 8.01277 21.6155ZM26.4625 25.7222C26.4625 31.7962 18.8954 34.4298 17.3764 34.8977L15.8882 35.3545L20.2958 40.4729C20.6573 40.8856 20.832 41.4116 20.7937 41.9582C20.7591 42.5028 20.5106 43.0026 20.0987 43.3601L18.7113 44.5721L17.3764 43.0363L18.7711 41.8168L12.6913 34.7873C13.4489 34.383 14.3364 33.8158 15.1483 33.0625C16.8364 31.5042 17.7267 29.5687 17.7267 27.4677C17.7267 26.5121 17.6155 25.7784 17.5165 25.1335C17.4296 24.5701 17.3549 24.0835 17.3549 23.5013C17.3549 22.0535 18.4741 20.1967 20.4069 18.9987C20.7255 18.8022 21.0301 18.6712 21.0301 18.6712C21.9213 19.0464 22.7546 19.535 23.4964 20.1227C25.4096 21.6417 26.4625 23.6295 26.4625 25.7222ZM58.7722 10.1068L68.4319 16.3492L66.9876 18.6487C66.2122 18.3249 65.0267 17.9617 63.5535 17.9617H61.9055C59.2318 17.9617 56.6412 17.2785 54.3496 16.001C55.8397 14.1152 57.8146 11.4245 58.7722 10.1068ZM32.4601 18.0825C32.4601 18.0825 34.0614 15.4863 34.62 14.644C37.9505 9.61728 43.0905 7.88306 45.0514 7.38423C45.9539 10.4484 47.6803 13.2252 50.0793 15.4161C51.7815 16.9688 53.7461 18.1527 55.864 18.9304C51.2807 18.6637 47.5897 16.4166 45.5783 13.7081L44.6945 12.5176L39.818 20.2594L40.5952 20.8209C41.7686 21.666 43.083 22.0891 44.4825 22.0891C45.5064 22.0891 46.5723 21.8644 47.67 21.4105C48.9088 20.8986 49.8981 20.2098 50.439 19.7896C52.6223 20.6646 55.1409 21.1241 57.8725 20.9604C57.7754 21.1026 57.6847 21.2467 57.5969 21.3984L56.6786 22.8368C55.011 25.1045 52.3317 26.4485 49.5244 26.4485V26.4503C46.1781 26.4194 43.126 24.6824 40.8886 23.4087C40.6943 23.2964 32.4601 18.0825 32.4601 18.0825ZM48.3436 18.7732C47.0151 19.608 44.7581 20.6159 42.6094 19.6464L44.8786 16.0422C45.8352 17.0623 47.002 17.9982 48.3436 18.7732Z" fill="#FF4400"/>
<path d="M27.7573 39.9947L26.7791 41.566L31.964 44.8061L33.043 43.0756L34.0193 41.5052C35.2076 39.5941 34.6237 37.0718 32.7179 35.8767L27.9021 32.8931C27.8993 32.8959 27.8965 32.8987 27.8955 32.8987C27.4705 33.4218 26.994 33.9226 26.4727 34.4027L31.6417 37.6072C32.5965 38.2043 32.8898 39.4687 32.2929 40.4261L31.3157 41.9993L29.5799 40.9156L30.5599 39.3423L24.7967 35.7485C24.1475 36.2052 23.4926 36.6058 22.862 36.9511L27.7573 39.9947Z" fill="#FF4400"/>
<path d="M58.2948 24.0844L59.3439 22.4353C60.2108 20.9332 61.8252 19.9992 63.5535 19.9992C65.4789 19.9992 66.8363 20.8378 66.8456 20.8424L67.6752 21.3787L71.2056 15.7184L56.445 6.1788L55.3632 7.90646L57.0598 9.00146C56.0555 10.3782 54.0637 13.0876 52.6353 14.8883C52.2262 14.5822 51.83 14.2556 51.448 13.9093C48.5995 11.3141 46.8245 7.78105 46.4471 3.96633C46.3855 3.32992 46.5172 2.7974 46.8189 2.46515C47.0768 2.18064 47.4701 2.03745 47.9848 2.03745C49.5627 2.03745 50.4409 3.66778 50.8715 4.84982H48.621C48.75 5.54519 48.9312 6.22653 49.1591 6.88727H53.4369L53.2201 5.68745C53.2117 5.6313 52.966 4.30513 52.2626 2.96679C51.2406 1.02574 49.7608 0 47.9867 0C46.889 0 45.9679 0.379974 45.3186 1.09406C44.6245 1.85588 44.3068 2.94433 44.4227 4.16194C44.4638 4.57467 44.5198 4.98553 44.5908 5.39451C42.345 5.94576 36.6865 7.84282 32.9282 13.5162C32.3303 14.4184 31.2952 16.0918 30.6814 17.0923C29.0633 16.3024 27.2304 15.7493 24.7753 15.7493C23.4011 15.7493 22.1137 16.0132 20.9609 16.4662C19.5942 15.9992 18.148 15.7493 16.7093 15.7493C15.0343 15.7493 13.49 16.1835 12 16.6066C10.5267 17.024 9.13569 17.4152 7.63348 17.4152C3.50707 17.4152 0.537219 15.4535 0.0196661 15.0071C-0.0503997 15.8578 0.0981398 16.9089 0.0981398 16.9089C0.560574 20.2229 3.64814 23.652 8.01371 23.652C10.1942 23.652 13.0239 22.6038 15.7695 21.33C15.479 22.0488 15.322 22.7844 15.322 23.5013C15.322 24.2388 15.4173 24.8499 15.5061 25.4414C15.6004 26.0713 15.6948 26.6656 15.6948 27.4677C15.6948 31.0606 12.1756 32.8771 10.6622 33.4939L9.34402 34.0292L15.9059 41.6184L14.5065 42.836L18.5142 47.4481L21.4346 44.8969C22.2548 44.1818 22.7499 43.1879 22.8247 42.1004C22.8994 41.0082 22.5463 39.9581 21.8335 39.1383L19.4204 36.3334C20.6489 35.8514 22.3137 35.069 23.8841 33.9169C25.3891 32.8135 26.5382 31.5528 27.3173 30.178C28.6691 30.9951 32.2574 33.1907 32.4265 33.2974C34.5247 34.6245 38.4213 37.084 42.7411 37.4864C42.4758 37.9104 33.427 52.3869 33.427 52.3869H3.27819L2.03382 54.4243H34.5331L46.3388 35.5547H44.3414C39.8142 35.5547 35.7112 32.9651 33.5083 31.5734C33.3373 31.4658 29.4118 29.0652 28.1226 28.2856C28.3683 27.4602 28.4935 26.6029 28.4935 25.7222C28.4935 22.995 27.1688 20.4381 24.7594 18.527C24.4511 18.2828 24.1307 18.0535 23.7981 17.8382C24.1139 17.8036 24.4409 17.7849 24.7744 17.7849C28.2282 17.7849 30.147 19.01 32.575 20.5598C32.8151 20.7133 39.6834 25.0643 39.8852 25.1803C42.1974 26.4981 45.6951 28.4897 49.6132 28.4897V28.485C51.0163 28.4719 52.3878 28.1855 53.6611 27.6623L36.9266 54.4243H67.9097L69.1746 52.3869C69.1746 52.3869 47.7672 52.3869 40.5934 52.3972L58.2948 24.0844ZM8.01277 21.6155C5.52684 21.6155 3.79294 20.2173 2.86621 18.6702C4.07507 19.0801 5.70527 19.4536 7.63255 19.4536C9.41782 19.4536 11.0088 19.0025 12.5512 18.5673C13.9721 18.1658 15.3155 17.7849 16.7084 17.7849C17.1877 17.7849 17.666 17.8186 18.1433 17.8831C14.8353 19.5939 10.6239 21.6155 8.01277 21.6155ZM26.4625 25.7222C26.4625 31.7962 18.8954 34.4298 17.3764 34.8977L15.8882 35.3545L20.2958 40.4729C20.6573 40.8856 20.832 41.4116 20.7937 41.9582C20.7591 42.5028 20.5106 43.0026 20.0987 43.3601L18.7113 44.5721L17.3764 43.0363L18.7711 41.8168L12.6913 34.7873C13.4489 34.383 14.3364 33.8158 15.1483 33.0625C16.8364 31.5042 17.7267 29.5687 17.7267 27.4677C17.7267 26.5121 17.6155 25.7784 17.5165 25.1335C17.4296 24.5701 17.3549 24.0835 17.3549 23.5013C17.3549 22.0535 18.4741 20.1967 20.4069 18.9987C20.7255 18.8022 21.0301 18.6712 21.0301 18.6712C21.9213 19.0464 22.7546 19.535 23.4964 20.1227C25.4096 21.6417 26.4625 23.6295 26.4625 25.7222ZM58.7722 10.1068L68.4319 16.3492L66.9876 18.6487C66.2122 18.3249 65.0267 17.9617 63.5535 17.9617H61.9055C59.2318 17.9617 56.6412 17.2785 54.3496 16.001C55.8397 14.1152 57.8146 11.4245 58.7722 10.1068ZM32.4601 18.0825C32.4601 18.0825 34.0614 15.4863 34.62 14.644C37.9505 9.61728 43.0905 7.88306 45.0514 7.38423C45.9539 10.4484 47.6803 13.2252 50.0793 15.4161C51.7815 16.9688 53.7461 18.1527 55.864 18.9304C51.2807 18.6637 47.5897 16.4166 45.5783 13.7081L44.6945 12.5176L39.818 20.2594L40.5952 20.8209C41.7686 21.666 43.083 22.0891 44.4825 22.0891C45.5064 22.0891 46.5723 21.8644 47.67 21.4105C48.9088 20.8986 49.8981 20.2098 50.439 19.7896C52.6223 20.6646 55.1409 21.1241 57.8725 20.9604C57.7754 21.1026 57.6847 21.2467 57.5969 21.3984L56.6786 22.8368C55.011 25.1045 52.3317 26.4485 49.5244 26.4485V26.4503C46.1781 26.4194 43.126 24.6824 40.8886 23.4087C40.6943 23.2964 32.4601 18.0825 32.4601 18.0825ZM48.3436 18.7732C47.0151 19.608 44.7581 20.6159 42.6094 19.6464L44.8786 16.0422C45.8352 17.0623 47.002 17.9982 48.3436 18.7732Z" fill="#FF4400"/>
<path d="M47.7596 44.7594H55.7191L53.661 35.3799L52.1177 37.8329L53.1911 42.7201H49.0395L47.7596 44.7594Z" fill="#FF4400"/>
<path d="M6.40589 61.887C8.0884 61.887 8.59288 63.2768 8.59288 64.8154C8.59288 66.0592 7.96322 67.7448 6.40589 67.7448C4.87752 67.7448 4.28336 66.3568 4.28336 64.8154C4.28336 63.2777 4.72244 61.887 6.40589 61.887ZM6.23586 69.7092C7.69323 69.7092 8.73955 68.6638 8.73955 68.6638L9.25523 69.4977H10.8434V56.4541H8.59288V60.6441C7.9847 60.207 7.26069 59.9253 6.40589 59.9253C3.50703 59.9253 2.03378 62.0714 2.03378 64.8163C2.03378 67.5613 3.57243 69.7092 6.23586 69.7092Z" fill="#FF4400"/>
<path d="M64.8025 67.7226C63.1209 67.7226 62.6183 66.3318 62.6183 64.7942C62.6183 63.5504 63.2433 61.8657 64.8025 61.8657C66.3299 61.8657 66.9241 63.2546 66.9241 64.7942C66.9241 66.3318 66.4878 67.7226 64.8025 67.7226ZM64.9734 59.8994C63.517 59.8994 62.4679 60.9429 62.4679 60.9429L61.9522 60.1109H60.3678V73.1545H62.6183V68.9617C63.2255 69.4006 63.9495 69.6833 64.8025 69.6833C67.7041 69.6833 69.1746 67.5373 69.1746 64.7932C69.1746 62.0464 67.635 59.8994 64.9734 59.8994Z" fill="#FF4400"/>
<path d="M56.2152 65.7562C56.2152 66.6088 55.6547 67.7225 54.2104 67.7225C52.8362 67.7225 52.4251 66.5283 52.4251 65.5494V60.1118H50.1671V65.7843C50.1671 68.5293 52.1103 69.6842 54.0245 69.6842C55.5117 69.6842 56.3665 68.6846 56.3665 68.6846L56.8766 69.5045H58.4722V60.1118H56.2152V65.7562Z" fill="#FF4400"/>
<path d="M35.5112 61.1628L34.8526 60.1118H33.2617V69.5035H35.5112V62.7866L38.6362 61.8807L37.4974 60.0669C37.1349 60.1549 36.2334 60.5236 35.5112 61.1628Z" fill="#FF4400"/>
<path d="M43.8761 59.8149C41.1211 59.8149 38.8893 62.0471 38.8893 64.8052C38.8893 67.567 41.1211 69.8 43.8761 69.8C46.6274 69.8 48.8573 67.567 48.8573 64.8052C48.8573 62.0461 46.6274 59.8149 43.8761 59.8149ZM43.8761 67.8328C42.2319 67.8328 41.1538 66.471 41.1538 64.8052C41.1538 63.1477 42.1684 61.7813 43.8761 61.7813C45.5783 61.7813 46.5984 63.0335 46.5984 64.8052C46.5984 66.5815 45.5185 67.8328 43.8761 67.8328Z" fill="#FF4400"/>
<path d="M16.3029 67.7532C15.4201 67.7532 15.0006 67.3339 15.0006 66.077V62.0368H17.9256V62.0171V60.1294V60.1107H15.0006V56.4551H12.7389V66.0405C12.7389 68.341 13.6535 69.7046 15.9311 69.7046C17.1287 69.7046 18.7552 69.0494 18.7552 69.0494L17.7117 67.391C17.7117 67.391 16.8083 67.7532 16.3029 67.7532Z" fill="#FF4400"/>
<path d="M29.7696 60.1041L29.2623 60.9156C29.2623 60.9156 28.3599 59.8936 26.9296 59.8936C24.0307 59.8936 22.5556 61.785 22.5556 64.5281C22.5556 67.2778 24.0307 69.1702 26.9296 69.1702C27.9927 69.1702 28.7532 68.7471 29.1147 68.2708V69.0962C29.1147 70.209 28.6794 71.3845 26.9651 71.3845C26.143 71.3845 25.3078 71.0963 24.6622 70.7996L23.5944 72.5085C24.4464 72.9128 25.674 73.3555 26.9651 73.3555C29.266 73.3555 31.3671 71.815 31.3671 69.0953V60.1032H29.7696V60.1041ZM26.9296 67.2048C25.4853 67.2048 24.8108 65.9638 24.8108 64.5291C24.8108 63.0981 25.433 61.858 26.9296 61.858C28.4224 61.858 29.1147 63.0878 29.1147 64.5291C29.1147 65.976 28.3711 67.2048 26.9296 67.2048Z" fill="#FF4400"/>
</g>
<defs>
<clipPath id="clip0_231_1524">
<rect width="71" height="73" fill="white"/>
</clipPath>
</defs>
</svg>
